<svg width="79" height="83" viewBox="0 0 79 83" fill="none" xmlns="http://www.w3.org/2000/svg">
<g clip-path="url(#clip0_102_491)">
<path d="M39.6184 82.522C61.2212 82.522 78.7341 64.1614 78.7341 41.5125C78.7341 18.8635 61.2212 0.50293 39.6184 0.50293C18.0155 0.50293 0.50293 18.8635 0.50293 41.5125C0.50293 64.1614 18.0155 82.522 39.6184 82.522Z" fill="#68625E"/>
<path fill-rule="evenodd" clip-rule="evenodd" d="M39.6191 0.754495C18.1662 0.754495 0.755138 18.9911 0.755138 41.5125C0.755138 64.0342 18.1662 82.2706 39.6191 82.2706C61.0719 82.2706 78.4831 64.0342 78.4831 41.5125C78.4831 18.9911 61.0719 0.754495 39.6191 0.754495ZM0.251953 41.5125C0.251953 18.7361 17.866 0.251465 39.6191 0.251465C61.3723 0.251465 78.9863 18.7361 78.9863 41.5125C78.9863 64.2887 61.3723 82.7736 39.6191 82.7736C17.866 82.7736 0.251953 64.2887 0.251953 41.5125Z" fill="#231F20"/>
<path d="M40.6822 63.1958C52.2055 63.1958 61.5471 53.4018 61.5471 41.3205C61.5471 29.2392 52.2055 19.4453 40.6822 19.4453C29.1589 19.4453 19.8174 29.2392 19.8174 41.3205C19.8174 53.4018 29.1589 63.1958 40.6822 63.1958Z" fill="#F27C7B"/>
<path fill-rule="evenodd" clip-rule="evenodd" d="M39.6187 4.46031C20.118 4.46031 4.28932 21.0378 4.28932 41.5127C4.28932 61.9875 20.118 78.5649 39.6187 78.5649C59.1192 78.5649 74.9479 61.9875 74.9479 41.5127C74.9479 21.0378 59.1192 4.46031 39.6187 4.46031ZM3.78613 41.5127C3.78613 20.7828 19.8178 3.95728 39.6187 3.95728C59.4196 3.95728 75.4511 20.7828 75.4511 41.5127C75.4511 62.2425 59.4196 79.0679 39.6187 79.0679C19.8178 79.0679 3.78613 62.2425 3.78613 41.5127Z" fill="#CFD1D2"/>
<path fill-rule="evenodd" clip-rule="evenodd" d="M39.6189 8.42954C22.2091 8.42954 8.07545 23.2299 8.07545 41.5126C8.07545 59.7952 22.2091 74.5959 39.6189 74.5959C57.0286 74.5959 71.1621 59.7952 71.1621 41.5126C71.1621 23.2299 57.0286 8.42954 39.6189 8.42954ZM7.57227 41.5126C7.57227 22.9749 21.9089 7.92651 39.6189 7.92651C57.329 7.92651 71.6653 22.9749 71.6653 41.5126C71.6653 60.0503 57.329 75.0989 39.6189 75.0989C21.9089 75.0989 7.57227 60.0503 7.57227 41.5126Z" fill="#CFD1D2"/>
<path fill-rule="evenodd" clip-rule="evenodd" d="M39.6183 12.8163C24.5194 12.8163 12.259 25.6526 12.259 41.5126C12.259 57.3726 24.5194 70.209 39.6183 70.209C54.7175 70.209 66.9776 57.3726 66.9776 41.5126C66.9776 25.6526 54.7175 12.8163 39.6183 12.8163ZM11.7559 41.5126C11.7559 25.3977 24.2192 12.3132 39.6183 12.3132C55.0174 12.3132 67.4807 25.3977 67.4807 41.5126C67.4807 57.6277 55.0174 70.712 39.6183 70.712C24.2192 70.712 11.7559 57.6277 11.7559 41.5126Z" fill="#CFD1D2"/>
<path d="M51.3246 41.6433L33.21 52.0985V31.188L51.3246 41.6433Z" fill="#FFE6D0"/>
</g>
<defs>
<clipPath id="clip0_102_491">
<rect width="79" height="83" fill="white"/>
</clipPath>
</defs>
</svg>
