<svg width="111" height="117" viewBox="0 0 111 117" fill="none" xmlns="http://www.w3.org/2000/svg">
<path d="M55.5 116C85.5995 116 110 90.2564 110 58.5C110 26.7436 85.5995 1 55.5 1C25.4005 1 1 26.7436 1 58.5C1 90.2564 25.4005 116 55.5 116Z" fill="#68625E" stroke="#231F20" stroke-miterlimit="10"/>
<path d="M56.9814 88.9019C73.037 88.9019 86.0526 75.1698 86.0526 58.2304C86.0526 41.291 73.037 27.559 56.9814 27.559C40.9258 27.559 27.9102 41.291 27.9102 58.2304C27.9102 75.1698 40.9258 88.9019 56.9814 88.9019Z" fill="#FF6969"/>
<path d="M55.5001 110.804C82.8798 110.804 105.075 87.3869 105.075 58.5C105.075 29.6132 82.8798 6.1958 55.5001 6.1958C28.1204 6.1958 5.9248 29.6132 5.9248 58.5C5.9248 87.3869 28.1204 110.804 55.5001 110.804Z" stroke="#C4E6DF" stroke-miterlimit="10"/>
<path d="M55.5005 105.239C79.9668 105.239 99.8007 84.3132 99.8007 58.5C99.8007 32.6869 79.9668 11.7612 55.5005 11.7612C31.0341 11.7612 11.2002 32.6869 11.2002 58.5C11.2002 84.3132 31.0341 105.239 55.5005 105.239Z" stroke="#C4E6DF" stroke-miterlimit="10"/>
<path d="M55.4997 99.088C76.7464 99.088 93.9702 80.9161 93.9702 58.5C93.9702 36.0838 76.7464 17.9119 55.4997 17.9119C34.2531 17.9119 17.0293 36.0838 17.0293 58.5C17.0293 80.9161 34.2531 99.088 55.4997 99.088Z" stroke="#C4E6DF" stroke-miterlimit="10"/>
<path d="M25.9882 41.6419C25.9882 41.6419 23.6062 34.4336 28.8861 27.6616C34.166 20.8897 42.5506 20.8897 42.5506 20.8897C42.5506 20.8897 51.1421 19.4701 51.765 27.6616C52.3878 35.8532 51.3513 40.9873 51.3513 40.9873C51.3513 40.9873 49.5922 52.1284 45.451 57.8068C45.451 57.8068 41.0007 65.9984 36.7549 62.7228C32.5091 59.4472 36.8595 42.6277 36.8595 42.6277C36.8595 42.6277 39.5506 29.741 46.0738 24.06C46.0738 24.06 39.373 21.1104 33.2512 29.0838C27.1294 37.0571 25.4554 53.2195 25.4554 53.2195C25.4554 53.2195 23.6111 69.0558 36.7573 68.7272C49.9036 68.3986 55.1835 56.9315 55.1835 56.9315C55.1835 56.9315 62.4294 43.6057 60.152 30.719C57.8746 17.8323 49.2832 18.1583 49.2832 18.1583C49.2832 18.1583 35.9228 15.8659 25.3678 25.1485C25.3678 25.1485 16.8834 31.9204 20.8154 40.0016C20.8154 40.0016 24.015 42.62 25.9907 41.6394L25.9882 41.6419Z" fill="#FFE6D0"/>
<path d="M19.7713 34.9368C16.0462 47.8132 26.2338 45.7134 26.2338 45.7134C26.2338 45.7134 24.2313 30.9809 35.9639 26.2318" stroke="#FFE6D0" stroke-miterlimit="10"/>
<path d="M45.21 24.8713C45.21 24.8713 54.215 23.9908 51.176 41.9783" stroke="#FFE6D0" stroke-miterlimit="10"/>
<path d="M44.0054 26.2318L46.6502 26.9942C46.6502 26.9942 34.5818 39.7808 35.4261 60.587" stroke="#FFE6D0" stroke-miterlimit="10"/>
<path d="M59.8575 29.2866C59.8575 29.2866 64.2201 42.6688 56.0058 60.5844C56.0058 60.5844 49.7332 73.8075 36.728 73.0861C23.7253 72.3648 24.9784 58.7644 24.9784 58.7644C24.9784 58.7644 24.3628 53.3864 26.2095 48.1932" stroke="#FFE6D0" stroke-miterlimit="10"/>
<path d="M84.1237 48.8401C84.1237 48.8401 88.3549 45.5517 85.7928 40.4997C85.7928 40.4997 79.2233 34.7443 71.5419 48.8401C71.5419 48.8401 67.4226 55.6531 68.9822 66.2244C68.9822 66.2244 70.318 73.271 75.885 71.7461C81.4521 70.2187 84.0117 57.6503 84.0117 57.6503H90.6907L87.2405 76.7956C87.2405 76.7956 85.2186 90.5397 79.6613 94.6496C74.104 98.7595 72.065 97.3502 72.065 97.3502C72.065 97.3502 61.6341 98.1717 62.4127 87.4823C62.4127 87.4823 64.1256 78.6721 72.065 80.3176C72.065 80.3176 77.2208 81.0236 74.7706 86.4247C74.7706 86.4247 71.9871 83.8397 68.425 86.3066C68.425 86.3066 64.4687 94.1773 72.065 94.4109C72.065 94.4109 76.5517 94.2928 77.5542 85.0128L80.0043 73.6201C80.0043 73.6201 81.1187 70.8015 79.0019 73.6201C76.8851 76.4388 72.065 77.4964 72.065 77.4964C72.065 77.4964 61.1888 78.3179 59.5197 65.0461C57.8506 51.7743 65.4201 43.9036 65.4201 43.9036C65.4201 43.9036 70.7633 35.9174 82.0093 36.151C93.2552 36.3846 92.4742 44.9612 92.4742 44.9612C92.4742 44.9612 92.8076 51.7743 87.0191 50.8347C87.0191 50.8347 83.3037 49.6564 84.1237 48.8375V48.8401Z" fill="#FFE6D0"/>
<path d="M92.4842 44.3118C92.4842 44.3118 95.4697 52.3005 88.7542 54.7649C88.7542 54.7649 84.9925 55.5196 83.2285 52.0002C83.2285 52.0002 84.7468 51.0041 85.0582 50.0441" stroke="#FFE6D0" stroke-miterlimit="10"/>
<path d="M86.0168 46.3603C86.0168 46.3603 86.3891 41.6369 80.1359 43.3568C73.8827 45.0768 69.9921 58.1304 69.9921 58.1304C69.9921 58.1304 69.1454 61.1723 68.8291 65.0281" stroke="#FFE6D0" stroke-miterlimit="10"/>
<path d="M90.2359 60.1814H91.5668L89.0899 73.6586L88.1847 78.4333C88.1847 78.4333 85.4231 94.7651 81.3257 97.2269C81.3257 97.2269 77.5154 102.151 70.0846 101.196C62.6538 100.241 61.6537 93.3558 61.6537 93.3558C61.6537 93.3558 61.0479 91.3945 62.374 88.9327" stroke="#FFE6D0" stroke-miterlimit="10"/>
<path d="M67.9092 92.5266C67.9092 92.5266 69.1233 85.806 74.9288 90.6732C74.9288 90.6732 78.07 87.7775 75.284 84.9666" stroke="#FFE6D0" stroke-miterlimit="10"/>
<path d="M59.836 55.6274C59.836 55.6274 56.5635 65.4748 60.7217 74.2516C60.7217 74.2516 62.6804 78.9108 67.1987 80.7514" stroke="#FFE6D0" stroke-miterlimit="10"/>
<path d="M73.8994 80.7489C73.8994 80.7489 78.4007 79.7504 79.1161 77.7609" stroke="#FFE6D0" stroke-miterlimit="10"/>
</svg>
