<svg width="1440" height="145" viewBox="0 0 1440 145" fill="none" xmlns="http://www.w3.org/2000/svg">
<rect width="1440" height="96" fill="#FF6969"/>
<circle cx="720.5" cy="70.5" r="74.5" fill="#FF6969"/>
<path d="M720.5 128C750.6 128 775 102.256 775 70.5C775 38.7436 750.6 13 720.5 13C690.4 13 666 38.7436 666 70.5C666 102.256 690.4 128 720.5 128Z" fill="#68625E" stroke="#231F20" stroke-miterlimit="10"/>
<path d="M721.981 100.902C738.037 100.902 751.053 87.1698 751.053 70.2304C751.053 53.291 738.037 39.559 721.981 39.559C705.926 39.559 692.91 53.291 692.91 70.2304C692.91 87.1698 705.926 100.902 721.981 100.902Z" fill="#FF6969"/>
<path d="M720.5 122.804C747.88 122.804 770.075 99.3869 770.075 70.5C770.075 41.6132 747.88 18.1958 720.5 18.1958C693.12 18.1958 670.925 41.6132 670.925 70.5C670.925 99.3869 693.12 122.804 720.5 122.804Z" stroke="#C4E6DF" stroke-miterlimit="10"/>
<path d="M720.5 117.239C744.967 117.239 764.801 96.3132 764.801 70.5C764.801 44.6869 744.967 23.7612 720.5 23.7612C696.034 23.7612 676.2 44.6869 676.2 70.5C676.2 96.3132 696.034 117.239 720.5 117.239Z" stroke="#C4E6DF" stroke-miterlimit="10"/>
<path d="M720.5 111.088C741.746 111.088 758.97 92.9161 758.97 70.5C758.97 48.0838 741.746 29.9119 720.5 29.9119C699.253 29.9119 682.029 48.0838 682.029 70.5C682.029 92.9161 699.253 111.088 720.5 111.088Z" stroke="#C4E6DF" stroke-miterlimit="10"/>
<path d="M690.988 53.6419C690.988 53.6419 688.606 46.4336 693.886 39.6616C699.166 32.8897 707.551 32.8897 707.551 32.8897C707.551 32.8897 716.142 31.4701 716.765 39.6616C717.388 47.8532 716.351 52.9873 716.351 52.9873C716.351 52.9873 714.592 64.1284 710.451 69.8068C710.451 69.8068 706.001 77.9984 701.755 74.7228C697.509 71.4472 701.86 54.6277 701.86 54.6277C701.86 54.6277 704.551 41.741 711.074 36.06C711.074 36.06 704.373 33.1104 698.251 41.0838C692.129 49.0571 690.455 65.2195 690.455 65.2195C690.455 65.2195 688.611 81.0558 701.757 80.7272C714.904 80.3986 720.184 68.9315 720.184 68.9315C720.184 68.9315 727.429 55.6057 725.152 42.719C722.875 29.8323 714.283 30.1583 714.283 30.1583C714.283 30.1583 700.923 27.8659 690.368 37.1485C690.368 37.1485 681.883 43.9204 685.815 52.0016C685.815 52.0016 689.015 54.62 690.991 53.6394L690.988 53.6419Z" fill="#FFE6D0"/>
<path d="M684.771 46.9368C681.046 59.8132 691.234 57.7134 691.234 57.7134C691.234 57.7134 689.231 42.9809 700.964 38.2318" stroke="#FFE6D0" stroke-miterlimit="10"/>
<path d="M710.21 36.8713C710.21 36.8713 719.215 35.9908 716.176 53.9783" stroke="#FFE6D0" stroke-miterlimit="10"/>
<path d="M709.005 38.2318L711.65 38.9942C711.65 38.9942 699.582 51.7808 700.426 72.587" stroke="#FFE6D0" stroke-miterlimit="10"/>
<path d="M724.858 41.2866C724.858 41.2866 729.22 54.6688 721.006 72.5844C721.006 72.5844 714.733 85.8075 701.728 85.0861C688.725 84.3648 689.978 70.7644 689.978 70.7644C689.978 70.7644 689.363 65.3864 691.21 60.1932" stroke="#FFE6D0" stroke-miterlimit="10"/>
<path d="M749.124 60.8401C749.124 60.8401 753.355 57.5517 750.793 52.4997C750.793 52.4997 744.223 46.7443 736.542 60.8401C736.542 60.8401 732.423 67.6531 733.982 78.2244C733.982 78.2244 735.318 85.271 740.885 83.7461C746.452 82.2187 749.012 69.6503 749.012 69.6503H755.691L752.241 88.7956C752.241 88.7956 750.219 102.54 744.661 106.65C739.104 110.76 737.065 109.35 737.065 109.35C737.065 109.35 726.634 110.172 727.413 99.4823C727.413 99.4823 729.126 90.6721 737.065 92.3176C737.065 92.3176 742.221 93.0236 739.771 98.4247C739.771 98.4247 736.987 95.8397 733.425 98.3066C733.425 98.3066 729.469 106.177 737.065 106.411C737.065 106.411 741.552 106.293 742.554 97.0128L745.004 85.6201C745.004 85.6201 746.119 82.8015 744.002 85.6201C741.885 88.4388 737.065 89.4964 737.065 89.4964C737.065 89.4964 726.189 90.3179 724.52 77.0461C722.851 63.7743 730.42 55.9036 730.42 55.9036C730.42 55.9036 735.763 47.9174 747.009 48.151C758.255 48.3846 757.474 56.9612 757.474 56.9612C757.474 56.9612 757.808 63.7743 752.019 62.8347C752.019 62.8347 748.304 61.6564 749.124 60.8375V60.8401Z" fill="#FFE6D0"/>
<path d="M757.484 56.3118C757.484 56.3118 760.47 64.3005 753.754 66.7649C753.754 66.7649 749.993 67.5196 748.229 64.0002C748.229 64.0002 749.747 63.0041 750.058 62.0441" stroke="#FFE6D0" stroke-miterlimit="10"/>
<path d="M751.017 58.3603C751.017 58.3603 751.389 53.6369 745.136 55.3568C738.883 57.0768 734.992 70.1304 734.992 70.1304C734.992 70.1304 734.145 73.1723 733.829 77.0281" stroke="#FFE6D0" stroke-miterlimit="10"/>
<path d="M755.236 72.1814H756.567L754.09 85.6586L753.185 90.4333C753.185 90.4333 750.423 106.765 746.326 109.227C746.326 109.227 742.515 114.151 735.085 113.196C727.654 112.241 726.654 105.356 726.654 105.356C726.654 105.356 726.048 103.395 727.374 100.933" stroke="#FFE6D0" stroke-miterlimit="10"/>
<path d="M732.909 104.527C732.909 104.527 734.123 97.806 739.929 102.673C739.929 102.673 743.07 99.7775 740.284 96.9666" stroke="#FFE6D0" stroke-miterlimit="10"/>
<path d="M724.836 67.6274C724.836 67.6274 721.563 77.4748 725.722 86.2516C725.722 86.2516 727.68 90.9108 732.199 92.7514" stroke="#FFE6D0" stroke-miterlimit="10"/>
<path d="M738.899 92.7489C738.899 92.7489 743.401 91.7504 744.116 89.7609" stroke="#FFE6D0" stroke-miterlimit="10"/>
</svg>
