<svg width="21" height="53" viewBox="0 0 21 53" fill="none" xmlns="http://www.w3.org/2000/svg">
<mask id="mask0_127_9" style="mask-type:alpha" maskUnits="userSpaceOnUse" x="0" y="0" width="21" height="53">
<path d="M12.6057 12.6198C12.6057 13.1633 12.6057 14.9347 12.6057 17.4514H19.5651L18.8106 25.1646H12.6057C12.6057 37.0598 12.6057 53 12.6057 53H4.36965C4.36965 53 4.36965 37.2708 4.36965 25.1646H0.078125V17.4514H4.36965C4.36965 14.3925 4.36965 12.2174 4.36965 11.6118C4.36965 8.72636 4.19479 7.35728 5.18094 5.12132C6.16758 2.88546 8.95056 -0.0698901 13.764 0.00126068C18.5786 0.0750044 20.608 0.650849 20.608 0.650849L19.5651 8.87125C19.5651 8.87125 16.4907 7.86197 14.9817 8.22167C13.4747 8.58147 12.6057 9.73564 12.6057 12.6198Z" fill="black"/>
</mask>
<g mask="url(#mask0_127_9)">
<rect x="-28.9219" y="-15" width="78.8473" height="83.8158" fill="#014D66"/>
</g>
</svg>
