<svg width="152" height="153" viewBox="0 0 152 153" fill="none" xmlns="http://www.w3.org/2000/svg">
<path d="M74.5 132C104.6 132 129 106.256 129 74.5C129 42.7436 104.6 17 74.5 17C44.4005 17 20 42.7436 20 74.5C20 106.256 44.4005 132 74.5 132Z" fill="#68625E" stroke="#231F20" stroke-miterlimit="10"/>
<path d="M75.9818 104.902C92.0374 104.902 105.053 91.1699 105.053 74.2305C105.053 57.2911 92.0374 43.559 75.9818 43.559C59.9262 43.559 46.9106 57.2911 46.9106 74.2305C46.9106 91.1699 59.9262 104.902 75.9818 104.902Z" fill="#FF6969"/>
<path d="M74.5 126.804C101.88 126.804 124.075 103.387 124.075 74.5C124.075 45.6131 101.88 22.1957 74.5 22.1957C47.1203 22.1957 24.9247 45.6131 24.9247 74.5C24.9247 103.387 47.1203 126.804 74.5 126.804Z" stroke="#C4E6DF" stroke-miterlimit="10"/>
<path d="M74.5 121.239C98.9664 121.239 118.8 100.313 118.8 74.5C118.8 48.6868 98.9664 27.7612 74.5 27.7612C50.0337 27.7612 30.1998 48.6868 30.1998 74.5C30.1998 100.313 50.0337 121.239 74.5 121.239Z" stroke="#C4E6DF" stroke-miterlimit="10"/>
<path d="M74.5 115.088C95.7466 115.088 112.97 96.9162 112.97 74.5C112.97 52.0838 95.7466 33.9119 74.5 33.9119C53.2533 33.9119 36.0295 52.0838 36.0295 74.5C36.0295 96.9162 53.2533 115.088 74.5 115.088Z" stroke="#C4E6DF" stroke-miterlimit="10"/>
<path d="M44.9884 57.642C44.9884 57.642 42.6063 50.4336 47.8862 43.6617C53.1662 36.8897 61.5508 36.8897 61.5508 36.8897C61.5508 36.8897 70.1422 35.4701 70.7651 43.6617C71.388 51.8532 70.3515 56.9874 70.3515 56.9874C70.3515 56.9874 68.5923 68.1285 64.4511 73.8069C64.4511 73.8069 60.0009 81.9984 55.755 78.7228C51.5092 75.4473 55.8596 58.6278 55.8596 58.6278C55.8596 58.6278 58.5507 45.741 65.074 40.0601C65.074 40.0601 58.3731 37.1105 52.2513 45.0838C46.1295 53.0572 44.4555 69.2195 44.4555 69.2195C44.4555 69.2195 42.6112 85.0558 55.7575 84.7272C68.9037 84.3987 74.1837 72.9315 74.1837 72.9315C74.1837 72.9315 81.4296 59.6058 79.1521 46.7191C76.8747 33.8323 68.2833 34.1584 68.2833 34.1584C68.2833 34.1584 54.9229 31.866 44.3679 41.1485C44.3679 41.1485 35.8835 47.9205 39.8155 56.0016C39.8155 56.0016 43.0151 58.6201 44.9908 57.6394L44.9884 57.642Z" fill="#FFE6D0"/>
<path d="M38.7717 50.9368C35.0466 63.8132 45.2341 61.7134 45.2341 61.7134C45.2341 61.7134 43.2317 46.9809 54.9643 42.2318" stroke="#FFE6D0" stroke-miterlimit="10"/>
<path d="M64.2102 40.8713C64.2102 40.8713 73.2153 39.9908 70.1763 57.9783" stroke="#FFE6D0" stroke-miterlimit="10"/>
<path d="M63.0058 42.2318L65.6506 42.9942C65.6506 42.9942 53.5822 55.7808 54.4265 76.587" stroke="#FFE6D0" stroke-miterlimit="10"/>
<path d="M78.8577 45.2866C78.8577 45.2866 83.2204 58.6688 75.0061 76.5844C75.0061 76.5844 68.7334 89.8075 55.7283 89.0861C42.7256 88.3648 43.9786 74.7644 43.9786 74.7644C43.9786 74.7644 43.363 69.3864 45.2098 64.1932" stroke="#FFE6D0" stroke-miterlimit="10"/>
<path d="M103.124 64.8401C103.124 64.8401 107.355 61.5517 104.793 56.4997C104.793 56.4997 98.2232 50.7443 90.5417 64.8401C90.5417 64.8401 86.4224 71.6531 87.9821 82.2244C87.9821 82.2244 89.3179 89.271 94.8849 87.7461C100.452 86.2187 103.012 73.6503 103.012 73.6503H109.691L106.24 92.7956C106.24 92.7956 104.218 106.54 98.6611 110.65C93.1038 114.76 91.0649 113.35 91.0649 113.35C91.0649 113.35 80.634 114.172 81.4126 103.482C81.4126 103.482 83.1255 94.6721 91.0649 96.3176C91.0649 96.3176 96.2207 97.0236 93.7705 102.425C93.7705 102.425 90.987 99.8397 87.4249 102.307C87.4249 102.307 83.4686 110.177 91.0649 110.411C91.0649 110.411 95.5516 110.293 96.554 101.013L99.0042 89.6201C99.0042 89.6201 100.119 86.8015 98.0018 89.6201C95.8849 92.4388 91.0649 93.4964 91.0649 93.4964C91.0649 93.4964 80.1887 94.3179 78.5196 81.0461C76.8504 67.7743 84.42 59.9036 84.42 59.9036C84.42 59.9036 89.7631 51.9174 101.009 52.151C112.255 52.3846 111.474 60.9612 111.474 60.9612C111.474 60.9612 111.807 67.7743 106.019 66.8347C106.019 66.8347 102.304 65.6564 103.124 64.8375V64.8401Z" fill="#FFE6D0"/>
<path d="M111.484 60.3118C111.484 60.3118 114.469 68.3005 107.754 70.7649C107.754 70.7649 103.992 71.5196 102.228 68.0002C102.228 68.0002 103.746 67.0041 104.058 66.0441" stroke="#FFE6D0" stroke-miterlimit="10"/>
<path d="M105.016 62.3603C105.016 62.3603 105.389 57.6369 99.1356 59.3568C92.8824 61.0768 88.9918 74.1304 88.9918 74.1304C88.9918 74.1304 88.145 77.1723 87.8287 81.0281" stroke="#FFE6D0" stroke-miterlimit="10"/>
<path d="M109.236 76.1815H110.567L108.09 89.6586L107.184 94.4334C107.184 94.4334 104.423 110.765 100.325 113.227C100.325 113.227 96.5151 118.151 89.0843 117.196C81.6535 116.241 80.6534 109.356 80.6534 109.356C80.6534 109.356 80.0476 107.395 81.3737 104.933" stroke="#FFE6D0" stroke-miterlimit="10"/>
<path d="M86.9091 108.527C86.9091 108.527 88.1232 101.806 93.9287 106.673C93.9287 106.673 97.0699 103.778 94.2839 100.967" stroke="#FFE6D0" stroke-miterlimit="10"/>
<path d="M78.8359 71.6274C78.8359 71.6274 75.5633 81.4748 79.7215 90.2516C79.7215 90.2516 81.6802 94.9108 86.1985 96.7514" stroke="#FFE6D0" stroke-miterlimit="10"/>
<path d="M92.8994 96.7489C92.8994 96.7489 97.4007 95.7503 98.1161 93.7608" stroke="#FFE6D0" stroke-miterlimit="10"/>
</svg>
