<svg width="1312" height="104" viewBox="0 0 1312 104" fill="none" xmlns="http://www.w3.org/2000/svg">
<g filter="url(#filter0_d_159_93)">
<path fill-rule="evenodd" clip-rule="evenodd" d="M3.12852 8.15251C0.474164 4.88484 2.79956 0 7.00946 0H1306C1310.21 0 1312.54 4.88485 1309.88 8.15252L1278.45 46.8475C1276.96 48.6843 1276.96 51.3157 1278.45 53.1525L1309.88 91.8475C1312.54 95.1152 1310.21 100 1306 100H7.00945C2.79955 100 0.474163 95.1152 3.12852 91.8475L34.5607 53.1525C36.0528 51.3157 36.0528 48.6843 34.5607 46.8475L3.12852 8.15251ZM661.506 10C661.506 12.7614 659.268 15 656.506 15C653.745 15 651.506 12.7614 651.506 10C651.506 7.23858 653.745 5 656.506 5C659.268 5 661.506 7.23858 661.506 10ZM656.506 95C659.268 95 661.506 92.7614 661.506 90C661.506 87.2386 659.268 85 656.506 85C653.745 85 651.506 87.2386 651.506 90C651.506 92.7614 653.745 95 656.506 95ZM681.506 10C681.506 12.7614 679.268 15 676.506 15C673.745 15 671.506 12.7614 671.506 10C671.506 7.23858 673.745 5 676.506 5C679.268 5 681.506 7.23858 681.506 10ZM676.506 95C679.268 95 681.506 92.7614 681.506 90C681.506 87.2386 679.268 85 676.506 85C673.745 85 671.506 87.2386 671.506 90C671.506 92.7614 673.745 95 676.506 95ZM701.506 10C701.506 12.7614 699.268 15 696.506 15C693.745 15 691.506 12.7614 691.506 10C691.506 7.23858 693.745 5 696.506 5C699.268 5 701.506 7.23858 701.506 10ZM696.506 95C699.268 95 701.506 92.7614 701.506 90C701.506 87.2386 699.268 85 696.506 85C693.745 85 691.506 87.2386 691.506 90C691.506 92.7614 693.745 95 696.506 95ZM721.506 10C721.506 12.7614 719.268 15 716.506 15C713.745 15 711.506 12.7614 711.506 10C711.506 7.23858 713.745 5 716.506 5C719.268 5 721.506 7.23858 721.506 10ZM716.506 95C719.268 95 721.506 92.7614 721.506 90C721.506 87.2386 719.268 85 716.506 85C713.745 85 711.506 87.2386 711.506 90C711.506 92.7614 713.745 95 716.506 95ZM741.506 10C741.506 12.7614 739.268 15 736.506 15C733.745 15 731.506 12.7614 731.506 10C731.506 7.23858 733.745 5 736.506 5C739.268 5 741.506 7.23858 741.506 10ZM736.506 95C739.268 95 741.506 92.7614 741.506 90C741.506 87.2386 739.268 85 736.506 85C733.745 85 731.506 87.2386 731.506 90C731.506 92.7614 733.745 95 736.506 95ZM761.506 10C761.506 12.7614 759.268 15 756.506 15C753.745 15 751.506 12.7614 751.506 10C751.506 7.23858 753.745 5 756.506 5C759.268 5 761.506 7.23858 761.506 10ZM756.506 95C759.268 95 761.506 92.7614 761.506 90C761.506 87.2386 759.268 85 756.506 85C753.745 85 751.506 87.2386 751.506 90C751.506 92.7614 753.745 95 756.506 95ZM781.506 10C781.506 12.7614 779.268 15 776.506 15C773.745 15 771.506 12.7614 771.506 10C771.506 7.23858 773.745 5 776.506 5C779.268 5 781.506 7.23858 781.506 10ZM776.506 95C779.268 95 781.506 92.7614 781.506 90C781.506 87.2386 779.268 85 776.506 85C773.745 85 771.506 87.2386 771.506 90C771.506 92.7614 773.745 95 776.506 95ZM801.506 10C801.506 12.7614 799.268 15 796.506 15C793.745 15 791.506 12.7614 791.506 10C791.506 7.23858 793.745 5 796.506 5C799.268 5 801.506 7.23858 801.506 10ZM796.506 95C799.268 95 801.506 92.7614 801.506 90C801.506 87.2386 799.268 85 796.506 85C793.745 85 791.506 87.2386 791.506 90C791.506 92.7614 793.745 95 796.506 95ZM821.506 10C821.506 12.7614 819.268 15 816.506 15C813.745 15 811.506 12.7614 811.506 10C811.506 7.23858 813.745 5 816.506 5C819.268 5 821.506 7.23858 821.506 10ZM816.506 95C819.268 95 821.506 92.7614 821.506 90C821.506 87.2386 819.268 85 816.506 85C813.745 85 811.506 87.2386 811.506 90C811.506 92.7614 813.745 95 816.506 95ZM841.506 10C841.506 12.7614 839.268 15 836.506 15C833.745 15 831.506 12.7614 831.506 10C831.506 7.23858 833.745 5 836.506 5C839.268 5 841.506 7.23858 841.506 10ZM836.506 95C839.268 95 841.506 92.7614 841.506 90C841.506 87.2386 839.268 85 836.506 85C833.745 85 831.506 87.2386 831.506 90C831.506 92.7614 833.745 95 836.506 95ZM861.506 10C861.506 12.7614 859.268 15 856.506 15C853.745 15 851.506 12.7614 851.506 10C851.506 7.23858 853.745 5 856.506 5C859.268 5 861.506 7.23858 861.506 10ZM856.506 95C859.268 95 861.506 92.7614 861.506 90C861.506 87.2386 859.268 85 856.506 85C853.745 85 851.506 87.2386 851.506 90C851.506 92.7614 853.745 95 856.506 95ZM881.506 10C881.506 12.7614 879.268 15 876.506 15C873.745 15 871.506 12.7614 871.506 10C871.506 7.23858 873.745 5 876.506 5C879.268 5 881.506 7.23858 881.506 10ZM876.506 95C879.268 95 881.506 92.7614 881.506 90C881.506 87.2386 879.268 85 876.506 85C873.745 85 871.506 87.2386 871.506 90C871.506 92.7614 873.745 95 876.506 95ZM901.506 10C901.506 12.7614 899.268 15 896.506 15C893.745 15 891.506 12.7614 891.506 10C891.506 7.23858 893.745 5 896.506 5C899.268 5 901.506 7.23858 901.506 10ZM896.506 95C899.268 95 901.506 92.7614 901.506 90C901.506 87.2386 899.268 85 896.506 85C893.745 85 891.506 87.2386 891.506 90C891.506 92.7614 893.745 95 896.506 95ZM921.506 10C921.506 12.7614 919.268 15 916.506 15C913.745 15 911.506 12.7614 911.506 10C911.506 7.23858 913.745 5 916.506 5C919.268 5 921.506 7.23858 921.506 10ZM916.506 95C919.268 95 921.506 92.7614 921.506 90C921.506 87.2386 919.268 85 916.506 85C913.745 85 911.506 87.2386 911.506 90C911.506 92.7614 913.745 95 916.506 95ZM941.506 10C941.506 12.7614 939.268 15 936.506 15C933.745 15 931.506 12.7614 931.506 10C931.506 7.23858 933.745 5 936.506 5C939.268 5 941.506 7.23858 941.506 10ZM936.506 95C939.268 95 941.506 92.7614 941.506 90C941.506 87.2386 939.268 85 936.506 85C933.745 85 931.506 87.2386 931.506 90C931.506 92.7614 933.745 95 936.506 95ZM961.506 10C961.506 12.7614 959.268 15 956.506 15C953.745 15 951.506 12.7614 951.506 10C951.506 7.23858 953.745 5 956.506 5C959.268 5 961.506 7.23858 961.506 10ZM956.506 95C959.268 95 961.506 92.7614 961.506 90C961.506 87.2386 959.268 85 956.506 85C953.745 85 951.506 87.2386 951.506 90C951.506 92.7614 953.745 95 956.506 95ZM981.506 10C981.506 12.7614 979.268 15 976.506 15C973.745 15 971.506 12.7614 971.506 10C971.506 7.23858 973.745 5 976.506 5C979.268 5 981.506 7.23858 981.506 10ZM976.506 95C979.268 95 981.506 92.7614 981.506 90C981.506 87.2386 979.268 85 976.506 85C973.745 85 971.506 87.2386 971.506 90C971.506 92.7614 973.745 95 976.506 95ZM1001.51 10C1001.51 12.7614 999.268 15 996.506 15C993.745 15 991.506 12.7614 991.506 10C991.506 7.23858 993.745 5 996.506 5C999.268 5 1001.51 7.23858 1001.51 10ZM996.506 95C999.268 95 1001.51 92.7614 1001.51 90C1001.51 87.2386 999.268 85 996.506 85C993.745 85 991.506 87.2386 991.506 90C991.506 92.7614 993.745 95 996.506 95ZM1021.51 10C1021.51 12.7614 1019.27 15 1016.51 15C1013.74 15 1011.51 12.7614 1011.51 10C1011.51 7.23858 1013.74 5 1016.51 5C1019.27 5 1021.51 7.23858 1021.51 10ZM1016.51 95C1019.27 95 1021.51 92.7614 1021.51 90C1021.51 87.2386 1019.27 85 1016.51 85C1013.74 85 1011.51 87.2386 1011.51 90C1011.51 92.7614 1013.74 95 1016.51 95ZM1041.51 10C1041.51 12.7614 1039.27 15 1036.51 15C1033.74 15 1031.51 12.7614 1031.51 10C1031.51 7.23858 1033.74 5 1036.51 5C1039.27 5 1041.51 7.23858 1041.51 10ZM1036.51 95C1039.27 95 1041.51 92.7614 1041.51 90C1041.51 87.2386 1039.27 85 1036.51 85C1033.74 85 1031.51 87.2386 1031.51 90C1031.51 92.7614 1033.74 95 1036.51 95ZM1061.51 10C1061.51 12.7614 1059.27 15 1056.51 15C1053.74 15 1051.51 12.7614 1051.51 10C1051.51 7.23858 1053.74 5 1056.51 5C1059.27 5 1061.51 7.23858 1061.51 10ZM1056.51 95C1059.27 95 1061.51 92.7614 1061.51 90C1061.51 87.2386 1059.27 85 1056.51 85C1053.74 85 1051.51 87.2386 1051.51 90C1051.51 92.7614 1053.74 95 1056.51 95ZM1081.51 10C1081.51 12.7614 1079.27 15 1076.51 15C1073.74 15 1071.51 12.7614 1071.51 10C1071.51 7.23858 1073.74 5 1076.51 5C1079.27 5 1081.51 7.23858 1081.51 10ZM1076.51 95C1079.27 95 1081.51 92.7614 1081.51 90C1081.51 87.2386 1079.27 85 1076.51 85C1073.74 85 1071.51 87.2386 1071.51 90C1071.51 92.7614 1073.74 95 1076.51 95ZM1101.51 10C1101.51 12.7614 1099.27 15 1096.51 15C1093.74 15 1091.51 12.7614 1091.51 10C1091.51 7.23858 1093.74 5 1096.51 5C1099.27 5 1101.51 7.23858 1101.51 10ZM1096.51 95C1099.27 95 1101.51 92.7614 1101.51 90C1101.51 87.2386 1099.27 85 1096.51 85C1093.74 85 1091.51 87.2386 1091.51 90C1091.51 92.7614 1093.74 95 1096.51 95ZM1121.51 10C1121.51 12.7614 1119.27 15 1116.51 15C1113.74 15 1111.51 12.7614 1111.51 10C1111.51 7.23858 1113.74 5 1116.51 5C1119.27 5 1121.51 7.23858 1121.51 10ZM1116.51 95C1119.27 95 1121.51 92.7614 1121.51 90C1121.51 87.2386 1119.27 85 1116.51 85C1113.74 85 1111.51 87.2386 1111.51 90C1111.51 92.7614 1113.74 95 1116.51 95ZM1141.51 10C1141.51 12.7614 1139.27 15 1136.51 15C1133.74 15 1131.51 12.7614 1131.51 10C1131.51 7.23858 1133.74 5 1136.51 5C1139.27 5 1141.51 7.23858 1141.51 10ZM1136.51 95C1139.27 95 1141.51 92.7614 1141.51 90C1141.51 87.2386 1139.27 85 1136.51 85C1133.74 85 1131.51 87.2386 1131.51 90C1131.51 92.7614 1133.74 95 1136.51 95ZM1161.51 10C1161.51 12.7614 1159.27 15 1156.51 15C1153.74 15 1151.51 12.7614 1151.51 10C1151.51 7.23858 1153.74 5 1156.51 5C1159.27 5 1161.51 7.23858 1161.51 10ZM1156.51 95C1159.27 95 1161.51 92.7614 1161.51 90C1161.51 87.2386 1159.27 85 1156.51 85C1153.74 85 1151.51 87.2386 1151.51 90C1151.51 92.7614 1153.74 95 1156.51 95ZM1181.51 10C1181.51 12.7614 1179.27 15 1176.51 15C1173.74 15 1171.51 12.7614 1171.51 10C1171.51 7.23858 1173.74 5 1176.51 5C1179.27 5 1181.51 7.23858 1181.51 10ZM1176.51 95C1179.27 95 1181.51 92.7614 1181.51 90C1181.51 87.2386 1179.27 85 1176.51 85C1173.74 85 1171.51 87.2386 1171.51 90C1171.51 92.7614 1173.74 95 1176.51 95ZM1201.51 10C1201.51 12.7614 1199.27 15 1196.51 15C1193.74 15 1191.51 12.7614 1191.51 10C1191.51 7.23858 1193.74 5 1196.51 5C1199.27 5 1201.51 7.23858 1201.51 10ZM1196.51 95C1199.27 95 1201.51 92.7614 1201.51 90C1201.51 87.2386 1199.27 85 1196.51 85C1193.74 85 1191.51 87.2386 1191.51 90C1191.51 92.7614 1193.74 95 1196.51 95ZM1221.51 10C1221.51 12.7614 1219.27 15 1216.51 15C1213.74 15 1211.51 12.7614 1211.51 10C1211.51 7.23858 1213.74 5 1216.51 5C1219.27 5 1221.51 7.23858 1221.51 10ZM1216.51 95C1219.27 95 1221.51 92.7614 1221.51 90C1221.51 87.2386 1219.27 85 1216.51 85C1213.74 85 1211.51 87.2386 1211.51 90C1211.51 92.7614 1213.74 95 1216.51 95ZM1241.51 10C1241.51 12.7614 1239.27 15 1236.51 15C1233.74 15 1231.51 12.7614 1231.51 10C1231.51 7.23858 1233.74 5 1236.51 5C1239.27 5 1241.51 7.23858 1241.51 10ZM1236.51 95C1239.27 95 1241.51 92.7614 1241.51 90C1241.51 87.2386 1239.27 85 1236.51 85C1233.74 85 1231.51 87.2386 1231.51 90C1231.51 92.7614 1233.74 95 1236.51 95ZM1261.51 10C1261.51 12.7614 1259.27 15 1256.51 15C1253.74 15 1251.51 12.7614 1251.51 10C1251.51 7.23858 1253.74 5 1256.51 5C1259.27 5 1261.51 7.23858 1261.51 10ZM1256.51 95C1259.27 95 1261.51 92.7614 1261.51 90C1261.51 87.2386 1259.27 85 1256.51 85C1253.74 85 1251.51 87.2386 1251.51 90C1251.51 92.7614 1253.74 95 1256.51 95ZM1281.51 10C1281.51 12.7614 1279.27 15 1276.51 15C1273.74 15 1271.51 12.7614 1271.51 10C1271.51 7.23858 1273.74 5 1276.51 5C1279.27 5 1281.51 7.23858 1281.51 10ZM1276.51 95C1279.27 95 1281.51 92.7614 1281.51 90C1281.51 87.2386 1279.27 85 1276.51 85C1273.74 85 1271.51 87.2386 1271.51 90C1271.51 92.7614 1273.74 95 1276.51 95ZM1301.51 10C1301.51 12.7614 1299.27 15 1296.51 15C1293.74 15 1291.51 12.7614 1291.51 10C1291.51 7.23858 1293.74 5 1296.51 5C1299.27 5 1301.51 7.23858 1301.51 10ZM1296.51 95C1299.27 95 1301.51 92.7614 1301.51 90C1301.51 87.2386 1299.27 85 1296.51 85C1293.74 85 1291.51 87.2386 1291.51 90C1291.51 92.7614 1293.74 95 1296.51 95ZM21.5062 10C21.5062 12.7614 19.2676 15 16.5062 15C13.7447 15 11.5062 12.7614 11.5062 10C11.5062 7.23858 13.7447 5 16.5062 5C19.2676 5 21.5062 7.23858 21.5062 10ZM16.5062 95C19.2676 95 21.5062 92.7614 21.5062 90C21.5062 87.2386 19.2676 85 16.5062 85C13.7447 85 11.5062 87.2386 11.5062 90C11.5062 92.7614 13.7447 95 16.5062 95ZM41.5062 10C41.5062 12.7614 39.2676 15 36.5062 15C33.7447 15 31.5062 12.7614 31.5062 10C31.5062 7.23858 33.7447 5 36.5062 5C39.2676 5 41.5062 7.23858 41.5062 10ZM36.5062 95C39.2676 95 41.5062 92.7614 41.5062 90C41.5062 87.2386 39.2676 85 36.5062 85C33.7447 85 31.5062 87.2386 31.5062 90C31.5062 92.7614 33.7447 95 36.5062 95ZM61.5062 10C61.5062 12.7614 59.2676 15 56.5062 15C53.7447 15 51.5062 12.7614 51.5062 10C51.5062 7.23858 53.7447 5 56.5062 5C59.2676 5 61.5062 7.23858 61.5062 10ZM56.5062 95C59.2676 95 61.5062 92.7614 61.5062 90C61.5062 87.2386 59.2676 85 56.5062 85C53.7447 85 51.5062 87.2386 51.5062 90C51.5062 92.7614 53.7447 95 56.5062 95ZM81.5062 10C81.5062 12.7614 79.2676 15 76.5062 15C73.7448 15 71.5062 12.7614 71.5062 10C71.5062 7.23858 73.7448 5 76.5062 5C79.2676 5 81.5062 7.23858 81.5062 10ZM76.5062 95C79.2676 95 81.5062 92.7614 81.5062 90C81.5062 87.2386 79.2676 85 76.5062 85C73.7448 85 71.5062 87.2386 71.5062 90C71.5062 92.7614 73.7448 95 76.5062 95ZM101.506 10C101.506 12.7614 99.2676 15 96.5062 15C93.7448 15 91.5062 12.7614 91.5062 10C91.5062 7.23858 93.7448 5 96.5062 5C99.2676 5 101.506 7.23858 101.506 10ZM96.5062 95C99.2676 95 101.506 92.7614 101.506 90C101.506 87.2386 99.2676 85 96.5062 85C93.7448 85 91.5062 87.2386 91.5062 90C91.5062 92.7614 93.7448 95 96.5062 95ZM121.506 10C121.506 12.7614 119.268 15 116.506 15C113.745 15 111.506 12.7614 111.506 10C111.506 7.23858 113.745 5 116.506 5C119.268 5 121.506 7.23858 121.506 10ZM116.506 95C119.268 95 121.506 92.7614 121.506 90C121.506 87.2386 119.268 85 116.506 85C113.745 85 111.506 87.2386 111.506 90C111.506 92.7614 113.745 95 116.506 95ZM141.506 10C141.506 12.7614 139.268 15 136.506 15C133.745 15 131.506 12.7614 131.506 10C131.506 7.23858 133.745 5 136.506 5C139.268 5 141.506 7.23858 141.506 10ZM136.506 95C139.268 95 141.506 92.7614 141.506 90C141.506 87.2386 139.268 85 136.506 85C133.745 85 131.506 87.2386 131.506 90C131.506 92.7614 133.745 95 136.506 95ZM161.506 10C161.506 12.7614 159.268 15 156.506 15C153.745 15 151.506 12.7614 151.506 10C151.506 7.23858 153.745 5 156.506 5C159.268 5 161.506 7.23858 161.506 10ZM156.506 95C159.268 95 161.506 92.7614 161.506 90C161.506 87.2386 159.268 85 156.506 85C153.745 85 151.506 87.2386 151.506 90C151.506 92.7614 153.745 95 156.506 95ZM181.506 10C181.506 12.7614 179.268 15 176.506 15C173.745 15 171.506 12.7614 171.506 10C171.506 7.23858 173.745 5 176.506 5C179.268 5 181.506 7.23858 181.506 10ZM176.506 95C179.268 95 181.506 92.7614 181.506 90C181.506 87.2386 179.268 85 176.506 85C173.745 85 171.506 87.2386 171.506 90C171.506 92.7614 173.745 95 176.506 95ZM201.506 10C201.506 12.7614 199.268 15 196.506 15C193.745 15 191.506 12.7614 191.506 10C191.506 7.23858 193.745 5 196.506 5C199.268 5 201.506 7.23858 201.506 10ZM196.506 95C199.268 95 201.506 92.7614 201.506 90C201.506 87.2386 199.268 85 196.506 85C193.745 85 191.506 87.2386 191.506 90C191.506 92.7614 193.745 95 196.506 95ZM221.506 10C221.506 12.7614 219.268 15 216.506 15C213.745 15 211.506 12.7614 211.506 10C211.506 7.23858 213.745 5 216.506 5C219.268 5 221.506 7.23858 221.506 10ZM216.506 95C219.268 95 221.506 92.7614 221.506 90C221.506 87.2386 219.268 85 216.506 85C213.745 85 211.506 87.2386 211.506 90C211.506 92.7614 213.745 95 216.506 95ZM241.506 10C241.506 12.7614 239.268 15 236.506 15C233.745 15 231.506 12.7614 231.506 10C231.506 7.23858 233.745 5 236.506 5C239.268 5 241.506 7.23858 241.506 10ZM236.506 95C239.268 95 241.506 92.7614 241.506 90C241.506 87.2386 239.268 85 236.506 85C233.745 85 231.506 87.2386 231.506 90C231.506 92.7614 233.745 95 236.506 95ZM261.506 10C261.506 12.7614 259.268 15 256.506 15C253.745 15 251.506 12.7614 251.506 10C251.506 7.23858 253.745 5 256.506 5C259.268 5 261.506 7.23858 261.506 10ZM256.506 95C259.268 95 261.506 92.7614 261.506 90C261.506 87.2386 259.268 85 256.506 85C253.745 85 251.506 87.2386 251.506 90C251.506 92.7614 253.745 95 256.506 95ZM281.506 10C281.506 12.7614 279.268 15 276.506 15C273.745 15 271.506 12.7614 271.506 10C271.506 7.23858 273.745 5 276.506 5C279.268 5 281.506 7.23858 281.506 10ZM276.506 95C279.268 95 281.506 92.7614 281.506 90C281.506 87.2386 279.268 85 276.506 85C273.745 85 271.506 87.2386 271.506 90C271.506 92.7614 273.745 95 276.506 95ZM301.506 10C301.506 12.7614 299.268 15 296.506 15C293.745 15 291.506 12.7614 291.506 10C291.506 7.23858 293.745 5 296.506 5C299.268 5 301.506 7.23858 301.506 10ZM296.506 95C299.268 95 301.506 92.7614 301.506 90C301.506 87.2386 299.268 85 296.506 85C293.745 85 291.506 87.2386 291.506 90C291.506 92.7614 293.745 95 296.506 95ZM321.506 10C321.506 12.7614 319.268 15 316.506 15C313.745 15 311.506 12.7614 311.506 10C311.506 7.23858 313.745 5 316.506 5C319.268 5 321.506 7.23858 321.506 10ZM316.506 95C319.268 95 321.506 92.7614 321.506 90C321.506 87.2386 319.268 85 316.506 85C313.745 85 311.506 87.2386 311.506 90C311.506 92.7614 313.745 95 316.506 95ZM341.506 10C341.506 12.7614 339.268 15 336.506 15C333.745 15 331.506 12.7614 331.506 10C331.506 7.23858 333.745 5 336.506 5C339.268 5 341.506 7.23858 341.506 10ZM336.506 95C339.268 95 341.506 92.7614 341.506 90C341.506 87.2386 339.268 85 336.506 85C333.745 85 331.506 87.2386 331.506 90C331.506 92.7614 333.745 95 336.506 95ZM361.506 10C361.506 12.7614 359.268 15 356.506 15C353.745 15 351.506 12.7614 351.506 10C351.506 7.23858 353.745 5 356.506 5C359.268 5 361.506 7.23858 361.506 10ZM356.506 95C359.268 95 361.506 92.7614 361.506 90C361.506 87.2386 359.268 85 356.506 85C353.745 85 351.506 87.2386 351.506 90C351.506 92.7614 353.745 95 356.506 95ZM381.506 10C381.506 12.7614 379.268 15 376.506 15C373.745 15 371.506 12.7614 371.506 10C371.506 7.23858 373.745 5 376.506 5C379.268 5 381.506 7.23858 381.506 10ZM376.506 95C379.268 95 381.506 92.7614 381.506 90C381.506 87.2386 379.268 85 376.506 85C373.745 85 371.506 87.2386 371.506 90C371.506 92.7614 373.745 95 376.506 95ZM401.506 10C401.506 12.7614 399.268 15 396.506 15C393.745 15 391.506 12.7614 391.506 10C391.506 7.23858 393.745 5 396.506 5C399.268 5 401.506 7.23858 401.506 10ZM396.506 95C399.268 95 401.506 92.7614 401.506 90C401.506 87.2386 399.268 85 396.506 85C393.745 85 391.506 87.2386 391.506 90C391.506 92.7614 393.745 95 396.506 95ZM421.506 10C421.506 12.7614 419.268 15 416.506 15C413.745 15 411.506 12.7614 411.506 10C411.506 7.23858 413.745 5 416.506 5C419.268 5 421.506 7.23858 421.506 10ZM416.506 95C419.268 95 421.506 92.7614 421.506 90C421.506 87.2386 419.268 85 416.506 85C413.745 85 411.506 87.2386 411.506 90C411.506 92.7614 413.745 95 416.506 95ZM441.506 10C441.506 12.7614 439.268 15 436.506 15C433.745 15 431.506 12.7614 431.506 10C431.506 7.23858 433.745 5 436.506 5C439.268 5 441.506 7.23858 441.506 10ZM436.506 95C439.268 95 441.506 92.7614 441.506 90C441.506 87.2386 439.268 85 436.506 85C433.745 85 431.506 87.2386 431.506 90C431.506 92.7614 433.745 95 436.506 95ZM461.506 10C461.506 12.7614 459.268 15 456.506 15C453.745 15 451.506 12.7614 451.506 10C451.506 7.23858 453.745 5 456.506 5C459.268 5 461.506 7.23858 461.506 10ZM456.506 95C459.268 95 461.506 92.7614 461.506 90C461.506 87.2386 459.268 85 456.506 85C453.745 85 451.506 87.2386 451.506 90C451.506 92.7614 453.745 95 456.506 95ZM481.506 10C481.506 12.7614 479.268 15 476.506 15C473.745 15 471.506 12.7614 471.506 10C471.506 7.23858 473.745 5 476.506 5C479.268 5 481.506 7.23858 481.506 10ZM476.506 95C479.268 95 481.506 92.7614 481.506 90C481.506 87.2386 479.268 85 476.506 85C473.745 85 471.506 87.2386 471.506 90C471.506 92.7614 473.745 95 476.506 95ZM501.506 10C501.506 12.7614 499.268 15 496.506 15C493.745 15 491.506 12.7614 491.506 10C491.506 7.23858 493.745 5 496.506 5C499.268 5 501.506 7.23858 501.506 10ZM496.506 95C499.268 95 501.506 92.7614 501.506 90C501.506 87.2386 499.268 85 496.506 85C493.745 85 491.506 87.2386 491.506 90C491.506 92.7614 493.745 95 496.506 95ZM521.506 10C521.506 12.7614 519.268 15 516.506 15C513.745 15 511.506 12.7614 511.506 10C511.506 7.23858 513.745 5 516.506 5C519.268 5 521.506 7.23858 521.506 10ZM516.506 95C519.268 95 521.506 92.7614 521.506 90C521.506 87.2386 519.268 85 516.506 85C513.745 85 511.506 87.2386 511.506 90C511.506 92.7614 513.745 95 516.506 95ZM541.506 10C541.506 12.7614 539.268 15 536.506 15C533.745 15 531.506 12.7614 531.506 10C531.506 7.23858 533.745 5 536.506 5C539.268 5 541.506 7.23858 541.506 10ZM536.506 95C539.268 95 541.506 92.7614 541.506 90C541.506 87.2386 539.268 85 536.506 85C533.745 85 531.506 87.2386 531.506 90C531.506 92.7614 533.745 95 536.506 95ZM561.506 10C561.506 12.7614 559.268 15 556.506 15C553.745 15 551.506 12.7614 551.506 10C551.506 7.23858 553.745 5 556.506 5C559.268 5 561.506 7.23858 561.506 10ZM556.506 95C559.268 95 561.506 92.7614 561.506 90C561.506 87.2386 559.268 85 556.506 85C553.745 85 551.506 87.2386 551.506 90C551.506 92.7614 553.745 95 556.506 95ZM581.506 10C581.506 12.7614 579.268 15 576.506 15C573.745 15 571.506 12.7614 571.506 10C571.506 7.23858 573.745 5 576.506 5C579.268 5 581.506 7.23858 581.506 10ZM576.506 95C579.268 95 581.506 92.7614 581.506 90C581.506 87.2386 579.268 85 576.506 85C573.745 85 571.506 87.2386 571.506 90C571.506 92.7614 573.745 95 576.506 95ZM601.506 10C601.506 12.7614 599.268 15 596.506 15C593.745 15 591.506 12.7614 591.506 10C591.506 7.23858 593.745 5 596.506 5C599.268 5 601.506 7.23858 601.506 10ZM596.506 95C599.268 95 601.506 92.7614 601.506 90C601.506 87.2386 599.268 85 596.506 85C593.745 85 591.506 87.2386 591.506 90C591.506 92.7614 593.745 95 596.506 95ZM621.506 10C621.506 12.7614 619.268 15 616.506 15C613.745 15 611.506 12.7614 611.506 10C611.506 7.23858 613.745 5 616.506 5C619.268 5 621.506 7.23858 621.506 10ZM616.506 95C619.268 95 621.506 92.7614 621.506 90C621.506 87.2386 619.268 85 616.506 85C613.745 85 611.506 87.2386 611.506 90C611.506 92.7614 613.745 95 616.506 95ZM641.506 10C641.506 12.7614 639.268 15 636.506 15C633.745 15 631.506 12.7614 631.506 10C631.506 7.23858 633.745 5 636.506 5C639.268 5 641.506 7.23858 641.506 10ZM636.506 95C639.268 95 641.506 92.7614 641.506 90C641.506 87.2386 639.268 85 636.506 85C633.745 85 631.506 87.2386 631.506 90C631.506 92.7614 633.745 95 636.506 95Z" fill="#BB2525"/>
</g>
<path d="M488.195 35.0186L487.976 44.335L481.428 44.5986L480.637 64.9893L471.364 65.4727L470.529 45.082L463.981 45.4336L464.245 35.0625L488.195 35.0186ZM516.167 49.1689C516.167 50.502 516.013 51.791 515.705 53.0361C515.397 54.2666 514.951 55.4238 514.365 56.5078C513.793 57.5918 513.09 58.5879 512.255 59.4961C511.435 60.3896 510.505 61.1587 509.465 61.8032C508.439 62.4478 507.319 62.9531 506.103 63.3193C504.887 63.6709 503.598 63.8467 502.236 63.8467C500.917 63.8467 499.658 63.6782 498.457 63.3413C497.27 63.0044 496.157 62.5356 495.117 61.9351C494.077 61.3198 493.132 60.5874 492.282 59.7378C491.447 58.8735 490.729 57.9214 490.129 56.8813C489.543 55.8267 489.082 54.6987 488.745 53.4976C488.422 52.2964 488.261 51.0439 488.261 49.7402C488.261 48.4658 488.415 47.2207 488.723 46.0049C489.03 44.7744 489.47 43.6172 490.041 42.5332C490.627 41.4492 491.33 40.4531 492.15 39.5449C492.971 38.6367 493.886 37.853 494.897 37.1938C495.922 36.5347 497.028 36.022 498.215 35.6558C499.401 35.2896 500.654 35.1064 501.972 35.1064C504.096 35.1064 506.03 35.436 507.773 36.0952C509.531 36.7544 511.025 37.6992 512.255 38.9297C513.5 40.1455 514.46 41.625 515.134 43.3682C515.822 45.0967 516.167 47.0303 516.167 49.1689ZM506.411 49.7402C506.411 49.1104 506.315 48.5024 506.125 47.9165C505.949 47.3159 505.686 46.7886 505.334 46.3345C504.982 45.8657 504.543 45.4922 504.016 45.2139C503.503 44.9209 502.91 44.7744 502.236 44.7744C501.547 44.7744 500.932 44.8989 500.39 45.1479C499.848 45.397 499.379 45.7412 498.984 46.1807C498.603 46.6055 498.31 47.1108 498.105 47.6968C497.9 48.2681 497.797 48.876 497.797 49.5205C497.797 50.1357 497.885 50.751 498.061 51.3662C498.237 51.9814 498.5 52.5381 498.852 53.0361C499.204 53.5342 499.636 53.937 500.148 54.2446C500.676 54.5522 501.284 54.7061 501.972 54.7061C502.661 54.7061 503.276 54.5742 503.818 54.3105C504.375 54.0322 504.843 53.666 505.224 53.2119C505.605 52.7432 505.898 52.2085 506.103 51.6079C506.308 51.0073 506.411 50.3848 506.411 49.7402ZM543.303 45.7412C543.303 47.1621 543.09 48.4219 542.666 49.5205C542.241 50.6191 541.655 51.5859 540.908 52.4209C540.175 53.2412 539.311 53.937 538.315 54.5083C537.319 55.0649 536.25 55.5264 535.107 55.8926C533.979 56.2441 532.807 56.5078 531.591 56.6836C530.375 56.8447 529.182 56.9326 528.01 56.9473V66.3076H517.771C517.771 64.6377 517.771 63.0117 517.771 61.4297C517.785 59.8477 517.792 58.2803 517.792 56.7275C517.807 55.1602 517.814 53.5854 517.814 52.0034C517.829 50.4214 517.844 48.7881 517.858 47.1035C517.888 45.3164 517.895 43.5293 517.88 41.7422C517.866 39.9551 517.902 38.1533 517.99 36.3369C519.865 35.7803 521.74 35.3628 523.615 35.0845C525.49 34.8062 527.424 34.667 529.416 34.667C530.544 34.667 531.672 34.7622 532.8 34.9526C533.928 35.1284 535.004 35.4141 536.03 35.8096C537.07 36.2051 538.029 36.7031 538.908 37.3037C539.802 37.8896 540.571 38.5928 541.215 39.4131C541.86 40.2334 542.365 41.1709 542.731 42.2256C543.112 43.2803 543.303 44.4521 543.303 45.7412ZM533.547 46.4883C533.547 45.5361 533.254 44.7964 532.668 44.269C532.097 43.7271 531.35 43.4561 530.427 43.4561C530.119 43.4561 529.797 43.4854 529.46 43.5439C529.138 43.5879 528.83 43.6465 528.537 43.7197L528.273 50.1357C528.479 50.165 528.676 50.1797 528.867 50.1797C529.057 50.1797 529.255 50.1797 529.46 50.1797C529.987 50.1797 530.493 50.0918 530.976 49.916C531.474 49.7402 531.914 49.4912 532.294 49.1689C532.675 48.832 532.976 48.4438 533.195 48.0044C533.43 47.5503 533.547 47.0449 533.547 46.4883ZM579.096 44.8184C579.096 45.9609 578.994 47.001 578.789 47.9385C578.598 48.8613 578.291 49.7109 577.866 50.4873C577.441 51.2637 576.892 51.9814 576.218 52.6406C575.544 53.2998 574.731 53.9297 573.779 54.5303L579.008 63.8467L569.121 65.7803L565.737 56.4199L563.012 56.5078L562.617 65.6484H553.168C553.242 62.3086 553.308 58.9834 553.366 55.6729C553.439 52.3623 553.52 49.0371 553.608 45.6973C553.637 44.0127 553.667 42.3428 553.696 40.6875C553.725 39.0322 553.784 37.3623 553.872 35.6777C554.897 35.2969 555.908 34.9819 556.904 34.7329C557.9 34.4839 558.896 34.2935 559.892 34.1616C560.903 34.0151 561.921 33.9199 562.946 33.876C563.986 33.8174 565.048 33.7881 566.132 33.7881C567.802 33.7881 569.414 34.0225 570.966 34.4912C572.534 34.9453 573.918 35.6338 575.119 36.5566C576.32 37.4795 577.28 38.6294 577.998 40.0063C578.73 41.3833 579.096 42.9873 579.096 44.8184ZM569.252 45.5215C569.252 44.9062 569.165 44.3423 568.989 43.8296C568.828 43.3169 568.579 42.8774 568.242 42.5112C567.919 42.1304 567.509 41.8374 567.011 41.6323C566.528 41.4126 565.957 41.3027 565.297 41.3027C565.004 41.3027 564.719 41.3247 564.44 41.3687C564.162 41.3979 563.891 41.4492 563.627 41.5225L563.276 49.6963H563.803C564.433 49.6963 565.07 49.6157 565.715 49.4546C566.374 49.2935 566.96 49.0444 567.473 48.7075C568 48.3706 568.425 47.9385 568.747 47.4111C569.084 46.8838 569.252 46.2539 569.252 45.5215ZM608.342 64.1104L597.443 65.5166L596.125 60.5508H591.115L590.017 65.5166L578.811 64.418L587.556 35.1504L599.772 34.5352L608.342 64.1104ZM595.334 53.8271L593.664 46.1807L592.038 53.8271H595.334ZM629.348 35.0186L629.128 44.335L622.58 44.5986L621.789 64.9893L612.517 65.4727L611.682 45.082L605.134 45.4336L605.397 35.0625L629.348 35.0186ZM654.682 48.2461C654.682 49.5205 654.594 50.7949 654.418 52.0693C651.914 52.2305 649.423 52.4941 646.948 52.8604C644.472 53.2119 641.997 53.5635 639.521 53.915C639.902 54.9697 640.495 55.812 641.301 56.4419C642.121 57.0718 643.095 57.3867 644.223 57.3867C644.809 57.3867 645.446 57.2769 646.135 57.0571C646.838 56.8374 647.534 56.5664 648.222 56.2441C648.911 55.9072 649.57 55.5483 650.2 55.1675C650.83 54.7866 651.372 54.4424 651.826 54.1348L650.771 64.1104C650.2 64.5498 649.577 64.9233 648.903 65.231C648.244 65.5386 647.556 65.7876 646.838 65.978C646.12 66.1685 645.395 66.3076 644.663 66.3955C643.93 66.4834 643.212 66.5273 642.509 66.5273C641.059 66.5273 639.733 66.3296 638.532 65.9341C637.331 65.5386 636.24 64.9893 635.258 64.2861C634.292 63.5684 633.442 62.7261 632.709 61.7593C631.977 60.7925 631.369 59.7378 630.886 58.5952C630.402 57.4526 630.036 56.2441 629.787 54.9697C629.538 53.6953 629.414 52.4062 629.414 51.1025C629.414 49.7402 629.538 48.3779 629.787 47.0156C630.036 45.6533 630.41 44.3423 630.908 43.0825C631.42 41.8228 632.058 40.6582 632.819 39.5889C633.596 38.5049 634.497 37.5601 635.522 36.7544C636.547 35.9487 637.705 35.3188 638.994 34.8647C640.297 34.4106 641.733 34.1836 643.3 34.1836C644.604 34.1836 645.791 34.3667 646.86 34.7329C647.944 35.0845 648.903 35.5825 649.738 36.2271C650.588 36.8569 651.32 37.6113 651.936 38.4902C652.565 39.3691 653.078 40.3359 653.474 41.3906C653.884 42.4307 654.184 43.5366 654.375 44.7085C654.58 45.8657 654.682 47.0449 654.682 48.2461ZM645.893 47.1035C645.893 46.6934 645.849 46.2759 645.761 45.8511C645.673 45.4116 645.527 45.0161 645.322 44.6646C645.131 44.313 644.875 44.0273 644.553 43.8076C644.23 43.5732 643.828 43.4561 643.344 43.4561C642.758 43.4561 642.238 43.6172 641.784 43.9395C641.345 44.2471 640.964 44.6426 640.642 45.126C640.319 45.5947 640.056 46.1074 639.851 46.6641C639.646 47.2207 639.492 47.7334 639.389 48.2021L645.893 47.5869V47.1035ZM681.027 48.5537C681.027 50.6045 680.764 52.4429 680.236 54.0688C679.709 55.6948 678.969 57.1377 678.017 58.3975C677.08 59.6426 675.959 60.7046 674.655 61.5835C673.352 62.4624 671.923 63.1875 670.371 63.7588C668.818 64.3154 667.163 64.7256 665.405 64.9893C663.662 65.2529 661.867 65.3848 660.021 65.3848C659.333 65.3848 658.659 65.3701 658 65.3408C657.341 65.2969 656.667 65.2383 655.979 65.165L656.594 36.5566C658.205 36.0439 659.86 35.6851 661.56 35.48C663.273 35.2603 664.973 35.1504 666.657 35.1504C668.752 35.1504 670.678 35.4434 672.436 36.0293C674.194 36.6152 675.71 37.4795 676.984 38.6221C678.259 39.75 679.248 41.1489 679.951 42.8188C680.668 44.4741 681.027 46.3857 681.027 48.5537ZM666.086 56.9912C666.965 56.8594 667.763 56.5957 668.481 56.2002C669.213 55.79 669.843 55.292 670.371 54.7061C670.898 54.1055 671.301 53.4316 671.579 52.6846C671.872 51.9229 672.019 51.1172 672.019 50.2676C672.019 49.4326 671.931 48.6562 671.755 47.9385C671.579 47.2061 671.293 46.5762 670.898 46.0488C670.502 45.5068 669.982 45.082 669.338 44.7744C668.693 44.4521 667.902 44.2764 666.965 44.2471L666.086 56.9912ZM729.609 51.1025C729.609 53.1973 729.543 55.2847 729.411 57.3647C729.279 59.4448 729.125 61.5322 728.95 63.627L717.656 64.1543C717.993 61.6055 718.293 59.0566 718.557 56.5078C718.835 53.9443 718.974 51.3809 718.974 48.8174C718.974 48.6562 718.967 48.3779 718.952 47.9824C718.938 47.5723 718.908 47.1108 718.864 46.5981C718.835 46.0854 718.784 45.5581 718.71 45.0161C718.652 44.4595 718.564 43.9541 718.447 43.5C718.344 43.0312 718.212 42.6504 718.051 42.3574C717.89 42.0645 717.7 41.918 717.48 41.918C716.967 41.918 716.564 42.1157 716.271 42.5112C715.979 42.8921 715.759 43.3535 715.612 43.8955C715.48 44.4375 715.4 44.9941 715.371 45.5654C715.341 46.1221 715.327 46.5762 715.327 46.9277C715.327 47.543 715.341 48.1582 715.371 48.7734C715.4 49.3887 715.415 50.0186 715.415 50.6631C715.415 52.9336 715.356 55.1968 715.239 57.4526C715.136 59.7085 715.004 61.9717 714.843 64.2422L704.428 64.6377C704.765 62.0889 705.058 59.5474 705.307 57.0132C705.571 54.4644 705.703 51.9082 705.703 49.3447C705.703 49.1836 705.695 48.8906 705.681 48.4658C705.666 48.041 705.637 47.5649 705.593 47.0376C705.563 46.5103 705.512 45.9609 705.439 45.3896C705.366 44.8184 705.271 44.2983 705.153 43.8296C705.051 43.3462 704.919 42.9507 704.758 42.6431C704.597 42.3354 704.399 42.1816 704.165 42.1816C703.798 42.1816 703.491 42.3281 703.242 42.6211C702.993 42.8994 702.788 43.2656 702.626 43.7197C702.48 44.1738 702.363 44.6792 702.275 45.2358C702.202 45.7778 702.143 46.3125 702.099 46.8398C702.07 47.3672 702.048 47.8579 702.033 48.312C702.033 48.7515 702.026 49.0811 702.011 49.3008L701.528 65.3408H690.454C690.688 62.8652 690.922 60.3823 691.157 57.8921C691.406 55.4019 691.618 52.9189 691.794 50.4434C691.984 47.9531 692.138 45.4629 692.255 42.9727C692.373 40.4824 692.431 37.9922 692.431 35.502L702.89 35.0625L702.846 37.6113C703.168 37.2012 703.535 36.791 703.945 36.3809C704.355 35.9561 704.787 35.5825 705.241 35.2603C705.71 34.9233 706.201 34.6523 706.713 34.4473C707.241 34.2422 707.783 34.1396 708.339 34.1396C709.057 34.1396 709.702 34.1982 710.273 34.3154C710.844 34.418 711.357 34.6011 711.811 34.8647C712.28 35.1284 712.69 35.4946 713.042 35.9634C713.393 36.4175 713.701 36.9961 713.964 37.6992C714.433 37.1865 714.902 36.7104 715.371 36.271C715.854 35.8315 716.359 35.458 716.887 35.1504C717.414 34.8281 717.985 34.5791 718.601 34.4033C719.216 34.2275 719.897 34.1396 720.644 34.1396C722.065 34.1396 723.273 34.418 724.27 34.9746C725.266 35.5166 726.093 36.2417 726.752 37.1499C727.426 38.0581 727.946 39.0981 728.312 40.27C728.693 41.4419 728.979 42.6577 729.169 43.9175C729.36 45.1772 729.477 46.4297 729.521 47.6748C729.58 48.9199 729.609 50.0625 729.609 51.1025ZM758.789 49.1689C758.789 50.502 758.635 51.791 758.327 53.0361C758.02 54.2666 757.573 55.4238 756.987 56.5078C756.416 57.5918 755.712 58.5879 754.877 59.4961C754.057 60.3896 753.127 61.1587 752.087 61.8032C751.062 62.4478 749.941 62.9531 748.725 63.3193C747.509 63.6709 746.22 63.8467 744.858 63.8467C743.54 63.8467 742.28 63.6782 741.079 63.3413C739.892 63.0044 738.779 62.5356 737.739 61.9351C736.699 61.3198 735.754 60.5874 734.904 59.7378C734.069 58.8735 733.352 57.9214 732.751 56.8813C732.165 55.8267 731.704 54.6987 731.367 53.4976C731.044 52.2964 730.883 51.0439 730.883 49.7402C730.883 48.4658 731.037 47.2207 731.345 46.0049C731.652 44.7744 732.092 43.6172 732.663 42.5332C733.249 41.4492 733.952 40.4531 734.772 39.5449C735.593 38.6367 736.508 37.853 737.519 37.1938C738.544 36.5347 739.65 36.022 740.837 35.6558C742.023 35.2896 743.276 35.1064 744.594 35.1064C746.718 35.1064 748.652 35.436 750.395 36.0952C752.153 36.7544 753.647 37.6992 754.877 38.9297C756.123 40.1455 757.082 41.625 757.756 43.3682C758.444 45.0967 758.789 47.0303 758.789 49.1689ZM749.033 49.7402C749.033 49.1104 748.938 48.5024 748.747 47.9165C748.571 47.3159 748.308 46.7886 747.956 46.3345C747.604 45.8657 747.165 45.4922 746.638 45.2139C746.125 44.9209 745.532 44.7744 744.858 44.7744C744.169 44.7744 743.554 44.8989 743.012 45.1479C742.47 45.397 742.001 45.7412 741.606 46.1807C741.225 46.6055 740.932 47.1108 740.727 47.6968C740.522 48.2681 740.419 48.876 740.419 49.5205C740.419 50.1357 740.507 50.751 740.683 51.3662C740.859 51.9814 741.123 52.5381 741.474 53.0361C741.826 53.5342 742.258 53.937 742.771 54.2446C743.298 54.5522 743.906 54.7061 744.594 54.7061C745.283 54.7061 745.898 54.5742 746.44 54.3105C746.997 54.0322 747.465 53.666 747.846 53.2119C748.227 52.7432 748.52 52.2085 748.725 51.6079C748.93 51.0073 749.033 50.3848 749.033 49.7402ZM786.452 35.1943L778.41 64.9014L767.512 65.5166L757.624 36.8203L768.039 35.8535L772.258 52.5527L776.345 34.5352L786.452 35.1943ZM798.603 35.0625L797.065 64.9893L787.792 65.4727L786.914 35.6777L798.603 35.0625ZM824.926 48.2461C824.926 49.5205 824.838 50.7949 824.663 52.0693C822.158 52.2305 819.667 52.4941 817.192 52.8604C814.716 53.2119 812.241 53.5635 809.765 53.915C810.146 54.9697 810.739 55.812 811.545 56.4419C812.365 57.0718 813.339 57.3867 814.467 57.3867C815.053 57.3867 815.69 57.2769 816.379 57.0571C817.082 56.8374 817.778 56.5664 818.466 56.2441C819.155 55.9072 819.814 55.5483 820.444 55.1675C821.074 54.7866 821.616 54.4424 822.07 54.1348L821.015 64.1104C820.444 64.5498 819.821 64.9233 819.147 65.231C818.488 65.5386 817.8 65.7876 817.082 65.978C816.364 66.1685 815.639 66.3076 814.907 66.3955C814.174 66.4834 813.457 66.5273 812.753 66.5273C811.303 66.5273 809.978 66.3296 808.776 65.9341C807.575 65.5386 806.484 64.9893 805.502 64.2861C804.536 63.5684 803.686 62.7261 802.954 61.7593C802.221 60.7925 801.613 59.7378 801.13 58.5952C800.646 57.4526 800.28 56.2441 800.031 54.9697C799.782 53.6953 799.658 52.4062 799.658 51.1025C799.658 49.7402 799.782 48.3779 800.031 47.0156C800.28 45.6533 800.654 44.3423 801.152 43.0825C801.665 41.8228 802.302 40.6582 803.063 39.5889C803.84 38.5049 804.741 37.5601 805.766 36.7544C806.792 35.9487 807.949 35.3188 809.238 34.8647C810.542 34.4106 811.977 34.1836 813.544 34.1836C814.848 34.1836 816.035 34.3667 817.104 34.7329C818.188 35.0845 819.147 35.5825 819.982 36.2271C820.832 36.8569 821.564 37.6113 822.18 38.4902C822.81 39.3691 823.322 40.3359 823.718 41.3906C824.128 42.4307 824.428 43.5366 824.619 44.7085C824.824 45.8657 824.926 47.0449 824.926 48.2461ZM816.137 47.1035C816.137 46.6934 816.093 46.2759 816.005 45.8511C815.917 45.4116 815.771 45.0161 815.566 44.6646C815.375 44.313 815.119 44.0273 814.797 43.8076C814.475 43.5732 814.072 43.4561 813.588 43.4561C813.002 43.4561 812.482 43.6172 812.028 43.9395C811.589 44.2471 811.208 44.6426 810.886 45.126C810.563 45.5947 810.3 46.1074 810.095 46.6641C809.89 47.2207 809.736 47.7334 809.633 48.2021L816.137 47.5869V47.1035ZM848.898 54.75C848.898 56.7568 848.547 58.4927 847.844 59.9575C847.155 61.4077 846.203 62.6089 844.987 63.561C843.786 64.4985 842.373 65.1943 840.747 65.6484C839.135 66.0879 837.399 66.3076 835.539 66.3076C834.821 66.3076 834.03 66.2124 833.166 66.022C832.316 65.8315 831.452 65.5972 830.573 65.3188C829.694 65.0259 828.845 64.7183 828.024 64.396C827.219 64.0591 826.501 63.7441 825.871 63.4512L826.838 54.8379C828.083 55.585 829.46 56.1562 830.969 56.5518C832.492 56.9326 833.986 57.123 835.451 57.123C835.729 57.123 836.066 57.1157 836.462 57.1011C836.857 57.0718 837.231 57.0059 837.583 56.9033C837.949 56.7861 838.256 56.6177 838.505 56.3979C838.754 56.1782 838.879 55.8633 838.879 55.4531C838.879 55.1748 838.791 54.9404 838.615 54.75C838.439 54.5449 838.212 54.3838 837.934 54.2666C837.656 54.1348 837.341 54.0396 836.989 53.981C836.638 53.9077 836.293 53.8564 835.957 53.8271C835.62 53.7979 835.305 53.7832 835.012 53.7832C834.719 53.7832 834.484 53.7832 834.309 53.7832C833.049 53.7832 831.899 53.5854 830.859 53.1899C829.833 52.7944 828.947 52.2378 828.2 51.52C827.468 50.7876 826.896 49.9087 826.486 48.8833C826.076 47.8433 825.871 46.6934 825.871 45.4336C825.871 43.7051 826.215 42.1597 826.904 40.7974C827.607 39.4204 828.537 38.2559 829.694 37.3037C830.866 36.3369 832.207 35.5972 833.715 35.0845C835.224 34.5718 836.784 34.3154 838.396 34.3154C839.113 34.3154 839.853 34.3447 840.615 34.4033C841.376 34.4473 842.131 34.5352 842.878 34.667C843.64 34.7988 844.379 34.9673 845.097 35.1724C845.815 35.3774 846.496 35.6338 847.141 35.9414L846.306 44.8623C845.31 44.5254 844.262 44.2471 843.164 44.0273C842.08 43.793 841.018 43.6758 839.978 43.6758C839.787 43.6758 839.538 43.6831 839.23 43.6978C838.938 43.6978 838.623 43.7197 838.286 43.7637C837.963 43.793 837.634 43.8442 837.297 43.9175C836.96 43.9907 836.66 44.0933 836.396 44.2251C836.132 44.3423 835.92 44.5034 835.759 44.7085C835.598 44.9136 835.524 45.1553 835.539 45.4336C835.554 45.7559 835.671 46.0049 835.891 46.1807C836.125 46.3564 836.418 46.4883 836.77 46.5762C837.136 46.6494 837.531 46.686 837.956 46.686C838.396 46.686 838.828 46.6787 839.252 46.6641C839.677 46.6348 840.073 46.6128 840.439 46.5981C840.805 46.5688 841.105 46.5615 841.34 46.5762C842.512 46.6494 843.566 46.8984 844.504 47.3232C845.441 47.748 846.232 48.312 846.877 49.0151C847.536 49.7183 848.034 50.5605 848.371 51.542C848.723 52.5088 848.898 53.5781 848.898 54.75Z" fill="#FFE6D0"/>
<defs>
<filter id="filter0_d_159_93" x="0" y="0" width="1311.01" height="104" filterUnits="userSpaceOnUse" color-interpolation-filters="sRGB">
<feFlood flood-opacity="0" result="BackgroundImageFix"/>
<feColorMatrix in="SourceAlpha" type="matrix" values="0 0 0 0 0 0 0 0 0 0 0 0 0 0 0 0 0 0 127 0" result="hardAlpha"/>
<feOffset dx="-2" dy="4"/>
<feComposite in2="hardAlpha" operator="out"/>
<feColorMatrix type="matrix" values="0 0 0 0 0 0 0 0 0 0 0 0 0 0 0 0 0 0 0.4 0"/>
<feBlend mode="normal" in2="BackgroundImageFix" result="effect1_dropShadow_159_93"/>
<feBlend mode="normal" in="SourceGraphic" in2="effect1_dropShadow_159_93" result="shape"/>
</filter>
</defs>
</svg>
