<svg width="1312" height="104" viewBox="0 0 1312 104" fill="none" xmlns="http://www.w3.org/2000/svg">
<g filter="url(#filter0_d_166_142)">
<path fill-rule="evenodd" clip-rule="evenodd" d="M3.12852 8.15251C0.474164 4.88484 2.79956 0 7.00946 0H1306C1310.21 0 1312.54 4.88485 1309.88 8.15252L1278.45 46.8475C1276.96 48.6843 1276.96 51.3157 1278.45 53.1525L1309.88 91.8475C1312.54 95.1152 1310.21 100 1306 100H7.00945C2.79955 100 0.474163 95.1152 3.12852 91.8475L34.5607 53.1525C36.0528 51.3157 36.0528 48.6843 34.5607 46.8475L3.12852 8.15251ZM661.506 10C661.506 12.7614 659.268 15 656.506 15C653.745 15 651.506 12.7614 651.506 10C651.506 7.23858 653.745 5 656.506 5C659.268 5 661.506 7.23858 661.506 10ZM656.506 95C659.268 95 661.506 92.7614 661.506 90C661.506 87.2386 659.268 85 656.506 85C653.745 85 651.506 87.2386 651.506 90C651.506 92.7614 653.745 95 656.506 95ZM681.506 10C681.506 12.7614 679.268 15 676.506 15C673.745 15 671.506 12.7614 671.506 10C671.506 7.23858 673.745 5 676.506 5C679.268 5 681.506 7.23858 681.506 10ZM676.506 95C679.268 95 681.506 92.7614 681.506 90C681.506 87.2386 679.268 85 676.506 85C673.745 85 671.506 87.2386 671.506 90C671.506 92.7614 673.745 95 676.506 95ZM701.506 10C701.506 12.7614 699.268 15 696.506 15C693.745 15 691.506 12.7614 691.506 10C691.506 7.23858 693.745 5 696.506 5C699.268 5 701.506 7.23858 701.506 10ZM696.506 95C699.268 95 701.506 92.7614 701.506 90C701.506 87.2386 699.268 85 696.506 85C693.745 85 691.506 87.2386 691.506 90C691.506 92.7614 693.745 95 696.506 95ZM721.506 10C721.506 12.7614 719.268 15 716.506 15C713.745 15 711.506 12.7614 711.506 10C711.506 7.23858 713.745 5 716.506 5C719.268 5 721.506 7.23858 721.506 10ZM716.506 95C719.268 95 721.506 92.7614 721.506 90C721.506 87.2386 719.268 85 716.506 85C713.745 85 711.506 87.2386 711.506 90C711.506 92.7614 713.745 95 716.506 95ZM741.506 10C741.506 12.7614 739.268 15 736.506 15C733.745 15 731.506 12.7614 731.506 10C731.506 7.23858 733.745 5 736.506 5C739.268 5 741.506 7.23858 741.506 10ZM736.506 95C739.268 95 741.506 92.7614 741.506 90C741.506 87.2386 739.268 85 736.506 85C733.745 85 731.506 87.2386 731.506 90C731.506 92.7614 733.745 95 736.506 95ZM761.506 10C761.506 12.7614 759.268 15 756.506 15C753.745 15 751.506 12.7614 751.506 10C751.506 7.23858 753.745 5 756.506 5C759.268 5 761.506 7.23858 761.506 10ZM756.506 95C759.268 95 761.506 92.7614 761.506 90C761.506 87.2386 759.268 85 756.506 85C753.745 85 751.506 87.2386 751.506 90C751.506 92.7614 753.745 95 756.506 95ZM781.506 10C781.506 12.7614 779.268 15 776.506 15C773.745 15 771.506 12.7614 771.506 10C771.506 7.23858 773.745 5 776.506 5C779.268 5 781.506 7.23858 781.506 10ZM776.506 95C779.268 95 781.506 92.7614 781.506 90C781.506 87.2386 779.268 85 776.506 85C773.745 85 771.506 87.2386 771.506 90C771.506 92.7614 773.745 95 776.506 95ZM801.506 10C801.506 12.7614 799.268 15 796.506 15C793.745 15 791.506 12.7614 791.506 10C791.506 7.23858 793.745 5 796.506 5C799.268 5 801.506 7.23858 801.506 10ZM796.506 95C799.268 95 801.506 92.7614 801.506 90C801.506 87.2386 799.268 85 796.506 85C793.745 85 791.506 87.2386 791.506 90C791.506 92.7614 793.745 95 796.506 95ZM821.506 10C821.506 12.7614 819.268 15 816.506 15C813.745 15 811.506 12.7614 811.506 10C811.506 7.23858 813.745 5 816.506 5C819.268 5 821.506 7.23858 821.506 10ZM816.506 95C819.268 95 821.506 92.7614 821.506 90C821.506 87.2386 819.268 85 816.506 85C813.745 85 811.506 87.2386 811.506 90C811.506 92.7614 813.745 95 816.506 95ZM841.506 10C841.506 12.7614 839.268 15 836.506 15C833.745 15 831.506 12.7614 831.506 10C831.506 7.23858 833.745 5 836.506 5C839.268 5 841.506 7.23858 841.506 10ZM836.506 95C839.268 95 841.506 92.7614 841.506 90C841.506 87.2386 839.268 85 836.506 85C833.745 85 831.506 87.2386 831.506 90C831.506 92.7614 833.745 95 836.506 95ZM861.506 10C861.506 12.7614 859.268 15 856.506 15C853.745 15 851.506 12.7614 851.506 10C851.506 7.23858 853.745 5 856.506 5C859.268 5 861.506 7.23858 861.506 10ZM856.506 95C859.268 95 861.506 92.7614 861.506 90C861.506 87.2386 859.268 85 856.506 85C853.745 85 851.506 87.2386 851.506 90C851.506 92.7614 853.745 95 856.506 95ZM881.506 10C881.506 12.7614 879.268 15 876.506 15C873.745 15 871.506 12.7614 871.506 10C871.506 7.23858 873.745 5 876.506 5C879.268 5 881.506 7.23858 881.506 10ZM876.506 95C879.268 95 881.506 92.7614 881.506 90C881.506 87.2386 879.268 85 876.506 85C873.745 85 871.506 87.2386 871.506 90C871.506 92.7614 873.745 95 876.506 95ZM901.506 10C901.506 12.7614 899.268 15 896.506 15C893.745 15 891.506 12.7614 891.506 10C891.506 7.23858 893.745 5 896.506 5C899.268 5 901.506 7.23858 901.506 10ZM896.506 95C899.268 95 901.506 92.7614 901.506 90C901.506 87.2386 899.268 85 896.506 85C893.745 85 891.506 87.2386 891.506 90C891.506 92.7614 893.745 95 896.506 95ZM921.506 10C921.506 12.7614 919.268 15 916.506 15C913.745 15 911.506 12.7614 911.506 10C911.506 7.23858 913.745 5 916.506 5C919.268 5 921.506 7.23858 921.506 10ZM916.506 95C919.268 95 921.506 92.7614 921.506 90C921.506 87.2386 919.268 85 916.506 85C913.745 85 911.506 87.2386 911.506 90C911.506 92.7614 913.745 95 916.506 95ZM941.506 10C941.506 12.7614 939.268 15 936.506 15C933.745 15 931.506 12.7614 931.506 10C931.506 7.23858 933.745 5 936.506 5C939.268 5 941.506 7.23858 941.506 10ZM936.506 95C939.268 95 941.506 92.7614 941.506 90C941.506 87.2386 939.268 85 936.506 85C933.745 85 931.506 87.2386 931.506 90C931.506 92.7614 933.745 95 936.506 95ZM961.506 10C961.506 12.7614 959.268 15 956.506 15C953.745 15 951.506 12.7614 951.506 10C951.506 7.23858 953.745 5 956.506 5C959.268 5 961.506 7.23858 961.506 10ZM956.506 95C959.268 95 961.506 92.7614 961.506 90C961.506 87.2386 959.268 85 956.506 85C953.745 85 951.506 87.2386 951.506 90C951.506 92.7614 953.745 95 956.506 95ZM981.506 10C981.506 12.7614 979.268 15 976.506 15C973.745 15 971.506 12.7614 971.506 10C971.506 7.23858 973.745 5 976.506 5C979.268 5 981.506 7.23858 981.506 10ZM976.506 95C979.268 95 981.506 92.7614 981.506 90C981.506 87.2386 979.268 85 976.506 85C973.745 85 971.506 87.2386 971.506 90C971.506 92.7614 973.745 95 976.506 95ZM1001.51 10C1001.51 12.7614 999.268 15 996.506 15C993.745 15 991.506 12.7614 991.506 10C991.506 7.23858 993.745 5 996.506 5C999.268 5 1001.51 7.23858 1001.51 10ZM996.506 95C999.268 95 1001.51 92.7614 1001.51 90C1001.51 87.2386 999.268 85 996.506 85C993.745 85 991.506 87.2386 991.506 90C991.506 92.7614 993.745 95 996.506 95ZM1021.51 10C1021.51 12.7614 1019.27 15 1016.51 15C1013.74 15 1011.51 12.7614 1011.51 10C1011.51 7.23858 1013.74 5 1016.51 5C1019.27 5 1021.51 7.23858 1021.51 10ZM1016.51 95C1019.27 95 1021.51 92.7614 1021.51 90C1021.51 87.2386 1019.27 85 1016.51 85C1013.74 85 1011.51 87.2386 1011.51 90C1011.51 92.7614 1013.74 95 1016.51 95ZM1041.51 10C1041.51 12.7614 1039.27 15 1036.51 15C1033.74 15 1031.51 12.7614 1031.51 10C1031.51 7.23858 1033.74 5 1036.51 5C1039.27 5 1041.51 7.23858 1041.51 10ZM1036.51 95C1039.27 95 1041.51 92.7614 1041.51 90C1041.51 87.2386 1039.27 85 1036.51 85C1033.74 85 1031.51 87.2386 1031.51 90C1031.51 92.7614 1033.74 95 1036.51 95ZM1061.51 10C1061.51 12.7614 1059.27 15 1056.51 15C1053.74 15 1051.51 12.7614 1051.51 10C1051.51 7.23858 1053.74 5 1056.51 5C1059.27 5 1061.51 7.23858 1061.51 10ZM1056.51 95C1059.27 95 1061.51 92.7614 1061.51 90C1061.51 87.2386 1059.27 85 1056.51 85C1053.74 85 1051.51 87.2386 1051.51 90C1051.51 92.7614 1053.74 95 1056.51 95ZM1081.51 10C1081.51 12.7614 1079.27 15 1076.51 15C1073.74 15 1071.51 12.7614 1071.51 10C1071.51 7.23858 1073.74 5 1076.51 5C1079.27 5 1081.51 7.23858 1081.51 10ZM1076.51 95C1079.27 95 1081.51 92.7614 1081.51 90C1081.51 87.2386 1079.27 85 1076.51 85C1073.74 85 1071.51 87.2386 1071.51 90C1071.51 92.7614 1073.74 95 1076.51 95ZM1101.51 10C1101.51 12.7614 1099.27 15 1096.51 15C1093.74 15 1091.51 12.7614 1091.51 10C1091.51 7.23858 1093.74 5 1096.51 5C1099.27 5 1101.51 7.23858 1101.51 10ZM1096.51 95C1099.27 95 1101.51 92.7614 1101.51 90C1101.51 87.2386 1099.27 85 1096.51 85C1093.74 85 1091.51 87.2386 1091.51 90C1091.51 92.7614 1093.74 95 1096.51 95ZM1121.51 10C1121.51 12.7614 1119.27 15 1116.51 15C1113.74 15 1111.51 12.7614 1111.51 10C1111.51 7.23858 1113.74 5 1116.51 5C1119.27 5 1121.51 7.23858 1121.51 10ZM1116.51 95C1119.27 95 1121.51 92.7614 1121.51 90C1121.51 87.2386 1119.27 85 1116.51 85C1113.74 85 1111.51 87.2386 1111.51 90C1111.51 92.7614 1113.74 95 1116.51 95ZM1141.51 10C1141.51 12.7614 1139.27 15 1136.51 15C1133.74 15 1131.51 12.7614 1131.51 10C1131.51 7.23858 1133.74 5 1136.51 5C1139.27 5 1141.51 7.23858 1141.51 10ZM1136.51 95C1139.27 95 1141.51 92.7614 1141.51 90C1141.51 87.2386 1139.27 85 1136.51 85C1133.74 85 1131.51 87.2386 1131.51 90C1131.51 92.7614 1133.74 95 1136.51 95ZM1161.51 10C1161.51 12.7614 1159.27 15 1156.51 15C1153.74 15 1151.51 12.7614 1151.51 10C1151.51 7.23858 1153.74 5 1156.51 5C1159.27 5 1161.51 7.23858 1161.51 10ZM1156.51 95C1159.27 95 1161.51 92.7614 1161.51 90C1161.51 87.2386 1159.27 85 1156.51 85C1153.74 85 1151.51 87.2386 1151.51 90C1151.51 92.7614 1153.74 95 1156.51 95ZM1181.51 10C1181.51 12.7614 1179.27 15 1176.51 15C1173.74 15 1171.51 12.7614 1171.51 10C1171.51 7.23858 1173.74 5 1176.51 5C1179.27 5 1181.51 7.23858 1181.51 10ZM1176.51 95C1179.27 95 1181.51 92.7614 1181.51 90C1181.51 87.2386 1179.27 85 1176.51 85C1173.74 85 1171.51 87.2386 1171.51 90C1171.51 92.7614 1173.74 95 1176.51 95ZM1201.51 10C1201.51 12.7614 1199.27 15 1196.51 15C1193.74 15 1191.51 12.7614 1191.51 10C1191.51 7.23858 1193.74 5 1196.51 5C1199.27 5 1201.51 7.23858 1201.51 10ZM1196.51 95C1199.27 95 1201.51 92.7614 1201.51 90C1201.51 87.2386 1199.27 85 1196.51 85C1193.74 85 1191.51 87.2386 1191.51 90C1191.51 92.7614 1193.74 95 1196.51 95ZM1221.51 10C1221.51 12.7614 1219.27 15 1216.51 15C1213.74 15 1211.51 12.7614 1211.51 10C1211.51 7.23858 1213.74 5 1216.51 5C1219.27 5 1221.51 7.23858 1221.51 10ZM1216.51 95C1219.27 95 1221.51 92.7614 1221.51 90C1221.51 87.2386 1219.27 85 1216.51 85C1213.74 85 1211.51 87.2386 1211.51 90C1211.51 92.7614 1213.74 95 1216.51 95ZM1241.51 10C1241.51 12.7614 1239.27 15 1236.51 15C1233.74 15 1231.51 12.7614 1231.51 10C1231.51 7.23858 1233.74 5 1236.51 5C1239.27 5 1241.51 7.23858 1241.51 10ZM1236.51 95C1239.27 95 1241.51 92.7614 1241.51 90C1241.51 87.2386 1239.27 85 1236.51 85C1233.74 85 1231.51 87.2386 1231.51 90C1231.51 92.7614 1233.74 95 1236.51 95ZM1261.51 10C1261.51 12.7614 1259.27 15 1256.51 15C1253.74 15 1251.51 12.7614 1251.51 10C1251.51 7.23858 1253.74 5 1256.51 5C1259.27 5 1261.51 7.23858 1261.51 10ZM1256.51 95C1259.27 95 1261.51 92.7614 1261.51 90C1261.51 87.2386 1259.27 85 1256.51 85C1253.74 85 1251.51 87.2386 1251.51 90C1251.51 92.7614 1253.74 95 1256.51 95ZM1281.51 10C1281.51 12.7614 1279.27 15 1276.51 15C1273.74 15 1271.51 12.7614 1271.51 10C1271.51 7.23858 1273.74 5 1276.51 5C1279.27 5 1281.51 7.23858 1281.51 10ZM1276.51 95C1279.27 95 1281.51 92.7614 1281.51 90C1281.51 87.2386 1279.27 85 1276.51 85C1273.74 85 1271.51 87.2386 1271.51 90C1271.51 92.7614 1273.74 95 1276.51 95ZM1301.51 10C1301.51 12.7614 1299.27 15 1296.51 15C1293.74 15 1291.51 12.7614 1291.51 10C1291.51 7.23858 1293.74 5 1296.51 5C1299.27 5 1301.51 7.23858 1301.51 10ZM1296.51 95C1299.27 95 1301.51 92.7614 1301.51 90C1301.51 87.2386 1299.27 85 1296.51 85C1293.74 85 1291.51 87.2386 1291.51 90C1291.51 92.7614 1293.74 95 1296.51 95ZM21.5062 10C21.5062 12.7614 19.2676 15 16.5062 15C13.7447 15 11.5062 12.7614 11.5062 10C11.5062 7.23858 13.7447 5 16.5062 5C19.2676 5 21.5062 7.23858 21.5062 10ZM16.5062 95C19.2676 95 21.5062 92.7614 21.5062 90C21.5062 87.2386 19.2676 85 16.5062 85C13.7447 85 11.5062 87.2386 11.5062 90C11.5062 92.7614 13.7447 95 16.5062 95ZM41.5062 10C41.5062 12.7614 39.2676 15 36.5062 15C33.7447 15 31.5062 12.7614 31.5062 10C31.5062 7.23858 33.7447 5 36.5062 5C39.2676 5 41.5062 7.23858 41.5062 10ZM36.5062 95C39.2676 95 41.5062 92.7614 41.5062 90C41.5062 87.2386 39.2676 85 36.5062 85C33.7447 85 31.5062 87.2386 31.5062 90C31.5062 92.7614 33.7447 95 36.5062 95ZM61.5062 10C61.5062 12.7614 59.2676 15 56.5062 15C53.7447 15 51.5062 12.7614 51.5062 10C51.5062 7.23858 53.7447 5 56.5062 5C59.2676 5 61.5062 7.23858 61.5062 10ZM56.5062 95C59.2676 95 61.5062 92.7614 61.5062 90C61.5062 87.2386 59.2676 85 56.5062 85C53.7447 85 51.5062 87.2386 51.5062 90C51.5062 92.7614 53.7447 95 56.5062 95ZM81.5062 10C81.5062 12.7614 79.2676 15 76.5062 15C73.7448 15 71.5062 12.7614 71.5062 10C71.5062 7.23858 73.7448 5 76.5062 5C79.2676 5 81.5062 7.23858 81.5062 10ZM76.5062 95C79.2676 95 81.5062 92.7614 81.5062 90C81.5062 87.2386 79.2676 85 76.5062 85C73.7448 85 71.5062 87.2386 71.5062 90C71.5062 92.7614 73.7448 95 76.5062 95ZM101.506 10C101.506 12.7614 99.2676 15 96.5062 15C93.7448 15 91.5062 12.7614 91.5062 10C91.5062 7.23858 93.7448 5 96.5062 5C99.2676 5 101.506 7.23858 101.506 10ZM96.5062 95C99.2676 95 101.506 92.7614 101.506 90C101.506 87.2386 99.2676 85 96.5062 85C93.7448 85 91.5062 87.2386 91.5062 90C91.5062 92.7614 93.7448 95 96.5062 95ZM121.506 10C121.506 12.7614 119.268 15 116.506 15C113.745 15 111.506 12.7614 111.506 10C111.506 7.23858 113.745 5 116.506 5C119.268 5 121.506 7.23858 121.506 10ZM116.506 95C119.268 95 121.506 92.7614 121.506 90C121.506 87.2386 119.268 85 116.506 85C113.745 85 111.506 87.2386 111.506 90C111.506 92.7614 113.745 95 116.506 95ZM141.506 10C141.506 12.7614 139.268 15 136.506 15C133.745 15 131.506 12.7614 131.506 10C131.506 7.23858 133.745 5 136.506 5C139.268 5 141.506 7.23858 141.506 10ZM136.506 95C139.268 95 141.506 92.7614 141.506 90C141.506 87.2386 139.268 85 136.506 85C133.745 85 131.506 87.2386 131.506 90C131.506 92.7614 133.745 95 136.506 95ZM161.506 10C161.506 12.7614 159.268 15 156.506 15C153.745 15 151.506 12.7614 151.506 10C151.506 7.23858 153.745 5 156.506 5C159.268 5 161.506 7.23858 161.506 10ZM156.506 95C159.268 95 161.506 92.7614 161.506 90C161.506 87.2386 159.268 85 156.506 85C153.745 85 151.506 87.2386 151.506 90C151.506 92.7614 153.745 95 156.506 95ZM181.506 10C181.506 12.7614 179.268 15 176.506 15C173.745 15 171.506 12.7614 171.506 10C171.506 7.23858 173.745 5 176.506 5C179.268 5 181.506 7.23858 181.506 10ZM176.506 95C179.268 95 181.506 92.7614 181.506 90C181.506 87.2386 179.268 85 176.506 85C173.745 85 171.506 87.2386 171.506 90C171.506 92.7614 173.745 95 176.506 95ZM201.506 10C201.506 12.7614 199.268 15 196.506 15C193.745 15 191.506 12.7614 191.506 10C191.506 7.23858 193.745 5 196.506 5C199.268 5 201.506 7.23858 201.506 10ZM196.506 95C199.268 95 201.506 92.7614 201.506 90C201.506 87.2386 199.268 85 196.506 85C193.745 85 191.506 87.2386 191.506 90C191.506 92.7614 193.745 95 196.506 95ZM221.506 10C221.506 12.7614 219.268 15 216.506 15C213.745 15 211.506 12.7614 211.506 10C211.506 7.23858 213.745 5 216.506 5C219.268 5 221.506 7.23858 221.506 10ZM216.506 95C219.268 95 221.506 92.7614 221.506 90C221.506 87.2386 219.268 85 216.506 85C213.745 85 211.506 87.2386 211.506 90C211.506 92.7614 213.745 95 216.506 95ZM241.506 10C241.506 12.7614 239.268 15 236.506 15C233.745 15 231.506 12.7614 231.506 10C231.506 7.23858 233.745 5 236.506 5C239.268 5 241.506 7.23858 241.506 10ZM236.506 95C239.268 95 241.506 92.7614 241.506 90C241.506 87.2386 239.268 85 236.506 85C233.745 85 231.506 87.2386 231.506 90C231.506 92.7614 233.745 95 236.506 95ZM261.506 10C261.506 12.7614 259.268 15 256.506 15C253.745 15 251.506 12.7614 251.506 10C251.506 7.23858 253.745 5 256.506 5C259.268 5 261.506 7.23858 261.506 10ZM256.506 95C259.268 95 261.506 92.7614 261.506 90C261.506 87.2386 259.268 85 256.506 85C253.745 85 251.506 87.2386 251.506 90C251.506 92.7614 253.745 95 256.506 95ZM281.506 10C281.506 12.7614 279.268 15 276.506 15C273.745 15 271.506 12.7614 271.506 10C271.506 7.23858 273.745 5 276.506 5C279.268 5 281.506 7.23858 281.506 10ZM276.506 95C279.268 95 281.506 92.7614 281.506 90C281.506 87.2386 279.268 85 276.506 85C273.745 85 271.506 87.2386 271.506 90C271.506 92.7614 273.745 95 276.506 95ZM301.506 10C301.506 12.7614 299.268 15 296.506 15C293.745 15 291.506 12.7614 291.506 10C291.506 7.23858 293.745 5 296.506 5C299.268 5 301.506 7.23858 301.506 10ZM296.506 95C299.268 95 301.506 92.7614 301.506 90C301.506 87.2386 299.268 85 296.506 85C293.745 85 291.506 87.2386 291.506 90C291.506 92.7614 293.745 95 296.506 95ZM321.506 10C321.506 12.7614 319.268 15 316.506 15C313.745 15 311.506 12.7614 311.506 10C311.506 7.23858 313.745 5 316.506 5C319.268 5 321.506 7.23858 321.506 10ZM316.506 95C319.268 95 321.506 92.7614 321.506 90C321.506 87.2386 319.268 85 316.506 85C313.745 85 311.506 87.2386 311.506 90C311.506 92.7614 313.745 95 316.506 95ZM341.506 10C341.506 12.7614 339.268 15 336.506 15C333.745 15 331.506 12.7614 331.506 10C331.506 7.23858 333.745 5 336.506 5C339.268 5 341.506 7.23858 341.506 10ZM336.506 95C339.268 95 341.506 92.7614 341.506 90C341.506 87.2386 339.268 85 336.506 85C333.745 85 331.506 87.2386 331.506 90C331.506 92.7614 333.745 95 336.506 95ZM361.506 10C361.506 12.7614 359.268 15 356.506 15C353.745 15 351.506 12.7614 351.506 10C351.506 7.23858 353.745 5 356.506 5C359.268 5 361.506 7.23858 361.506 10ZM356.506 95C359.268 95 361.506 92.7614 361.506 90C361.506 87.2386 359.268 85 356.506 85C353.745 85 351.506 87.2386 351.506 90C351.506 92.7614 353.745 95 356.506 95ZM381.506 10C381.506 12.7614 379.268 15 376.506 15C373.745 15 371.506 12.7614 371.506 10C371.506 7.23858 373.745 5 376.506 5C379.268 5 381.506 7.23858 381.506 10ZM376.506 95C379.268 95 381.506 92.7614 381.506 90C381.506 87.2386 379.268 85 376.506 85C373.745 85 371.506 87.2386 371.506 90C371.506 92.7614 373.745 95 376.506 95ZM401.506 10C401.506 12.7614 399.268 15 396.506 15C393.745 15 391.506 12.7614 391.506 10C391.506 7.23858 393.745 5 396.506 5C399.268 5 401.506 7.23858 401.506 10ZM396.506 95C399.268 95 401.506 92.7614 401.506 90C401.506 87.2386 399.268 85 396.506 85C393.745 85 391.506 87.2386 391.506 90C391.506 92.7614 393.745 95 396.506 95ZM421.506 10C421.506 12.7614 419.268 15 416.506 15C413.745 15 411.506 12.7614 411.506 10C411.506 7.23858 413.745 5 416.506 5C419.268 5 421.506 7.23858 421.506 10ZM416.506 95C419.268 95 421.506 92.7614 421.506 90C421.506 87.2386 419.268 85 416.506 85C413.745 85 411.506 87.2386 411.506 90C411.506 92.7614 413.745 95 416.506 95ZM441.506 10C441.506 12.7614 439.268 15 436.506 15C433.745 15 431.506 12.7614 431.506 10C431.506 7.23858 433.745 5 436.506 5C439.268 5 441.506 7.23858 441.506 10ZM436.506 95C439.268 95 441.506 92.7614 441.506 90C441.506 87.2386 439.268 85 436.506 85C433.745 85 431.506 87.2386 431.506 90C431.506 92.7614 433.745 95 436.506 95ZM461.506 10C461.506 12.7614 459.268 15 456.506 15C453.745 15 451.506 12.7614 451.506 10C451.506 7.23858 453.745 5 456.506 5C459.268 5 461.506 7.23858 461.506 10ZM456.506 95C459.268 95 461.506 92.7614 461.506 90C461.506 87.2386 459.268 85 456.506 85C453.745 85 451.506 87.2386 451.506 90C451.506 92.7614 453.745 95 456.506 95ZM481.506 10C481.506 12.7614 479.268 15 476.506 15C473.745 15 471.506 12.7614 471.506 10C471.506 7.23858 473.745 5 476.506 5C479.268 5 481.506 7.23858 481.506 10ZM476.506 95C479.268 95 481.506 92.7614 481.506 90C481.506 87.2386 479.268 85 476.506 85C473.745 85 471.506 87.2386 471.506 90C471.506 92.7614 473.745 95 476.506 95ZM501.506 10C501.506 12.7614 499.268 15 496.506 15C493.745 15 491.506 12.7614 491.506 10C491.506 7.23858 493.745 5 496.506 5C499.268 5 501.506 7.23858 501.506 10ZM496.506 95C499.268 95 501.506 92.7614 501.506 90C501.506 87.2386 499.268 85 496.506 85C493.745 85 491.506 87.2386 491.506 90C491.506 92.7614 493.745 95 496.506 95ZM521.506 10C521.506 12.7614 519.268 15 516.506 15C513.745 15 511.506 12.7614 511.506 10C511.506 7.23858 513.745 5 516.506 5C519.268 5 521.506 7.23858 521.506 10ZM516.506 95C519.268 95 521.506 92.7614 521.506 90C521.506 87.2386 519.268 85 516.506 85C513.745 85 511.506 87.2386 511.506 90C511.506 92.7614 513.745 95 516.506 95ZM541.506 10C541.506 12.7614 539.268 15 536.506 15C533.745 15 531.506 12.7614 531.506 10C531.506 7.23858 533.745 5 536.506 5C539.268 5 541.506 7.23858 541.506 10ZM536.506 95C539.268 95 541.506 92.7614 541.506 90C541.506 87.2386 539.268 85 536.506 85C533.745 85 531.506 87.2386 531.506 90C531.506 92.7614 533.745 95 536.506 95ZM561.506 10C561.506 12.7614 559.268 15 556.506 15C553.745 15 551.506 12.7614 551.506 10C551.506 7.23858 553.745 5 556.506 5C559.268 5 561.506 7.23858 561.506 10ZM556.506 95C559.268 95 561.506 92.7614 561.506 90C561.506 87.2386 559.268 85 556.506 85C553.745 85 551.506 87.2386 551.506 90C551.506 92.7614 553.745 95 556.506 95ZM581.506 10C581.506 12.7614 579.268 15 576.506 15C573.745 15 571.506 12.7614 571.506 10C571.506 7.23858 573.745 5 576.506 5C579.268 5 581.506 7.23858 581.506 10ZM576.506 95C579.268 95 581.506 92.7614 581.506 90C581.506 87.2386 579.268 85 576.506 85C573.745 85 571.506 87.2386 571.506 90C571.506 92.7614 573.745 95 576.506 95ZM601.506 10C601.506 12.7614 599.268 15 596.506 15C593.745 15 591.506 12.7614 591.506 10C591.506 7.23858 593.745 5 596.506 5C599.268 5 601.506 7.23858 601.506 10ZM596.506 95C599.268 95 601.506 92.7614 601.506 90C601.506 87.2386 599.268 85 596.506 85C593.745 85 591.506 87.2386 591.506 90C591.506 92.7614 593.745 95 596.506 95ZM621.506 10C621.506 12.7614 619.268 15 616.506 15C613.745 15 611.506 12.7614 611.506 10C611.506 7.23858 613.745 5 616.506 5C619.268 5 621.506 7.23858 621.506 10ZM616.506 95C619.268 95 621.506 92.7614 621.506 90C621.506 87.2386 619.268 85 616.506 85C613.745 85 611.506 87.2386 611.506 90C611.506 92.7614 613.745 95 616.506 95ZM641.506 10C641.506 12.7614 639.268 15 636.506 15C633.745 15 631.506 12.7614 631.506 10C631.506 7.23858 633.745 5 636.506 5C639.268 5 641.506 7.23858 641.506 10ZM636.506 95C639.268 95 641.506 92.7614 641.506 90C641.506 87.2386 639.268 85 636.506 85C633.745 85 631.506 87.2386 631.506 90C631.506 92.7614 633.745 95 636.506 95Z" fill="#BB2525"/>
</g>
<path d="M537.232 33.9639L535.211 66.2197L525.191 66.6592L525.279 49.6523L520.753 63.3633H516.886L513.414 51.1025L513.37 65.3408L503.219 65.6484L503.658 35.2822L514.952 34.8428L519.435 49.3887L525.411 33.9639H537.232ZM565.753 49.1689C565.753 50.502 565.599 51.791 565.292 53.0361C564.984 54.2666 564.537 55.4238 563.951 56.5078C563.38 57.5918 562.677 58.5879 561.842 59.4961C561.021 60.3896 560.091 61.1587 559.051 61.8032C558.026 62.4478 556.905 62.9531 555.689 63.3193C554.474 63.6709 553.185 63.8467 551.822 63.8467C550.504 63.8467 549.244 63.6782 548.043 63.3413C546.856 63.0044 545.743 62.5356 544.703 61.9351C543.663 61.3198 542.718 60.5874 541.869 59.7378C541.034 58.8735 540.316 57.9214 539.715 56.8813C539.129 55.8267 538.668 54.6987 538.331 53.4976C538.009 52.2964 537.848 51.0439 537.848 49.7402C537.848 48.4658 538.001 47.2207 538.309 46.0049C538.617 44.7744 539.056 43.6172 539.627 42.5332C540.213 41.4492 540.917 40.4531 541.737 39.5449C542.557 38.6367 543.473 37.853 544.483 37.1938C545.509 36.5347 546.615 36.022 547.801 35.6558C548.988 35.2896 550.24 35.1064 551.559 35.1064C553.683 35.1064 555.616 35.436 557.359 36.0952C559.117 36.7544 560.611 37.6992 561.842 38.9297C563.087 40.1455 564.046 41.625 564.72 43.3682C565.409 45.0967 565.753 47.0303 565.753 49.1689ZM555.997 49.7402C555.997 49.1104 555.902 48.5024 555.711 47.9165C555.536 47.3159 555.272 46.7886 554.92 46.3345C554.569 45.8657 554.129 45.4922 553.602 45.2139C553.089 44.9209 552.496 44.7744 551.822 44.7744C551.134 44.7744 550.519 44.8989 549.977 45.1479C549.435 45.397 548.966 45.7412 548.57 46.1807C548.189 46.6055 547.896 47.1108 547.691 47.6968C547.486 48.2681 547.384 48.876 547.384 49.5205C547.384 50.1357 547.472 50.751 547.647 51.3662C547.823 51.9814 548.087 52.5381 548.438 53.0361C548.79 53.5342 549.222 53.937 549.735 54.2446C550.262 54.5522 550.87 54.7061 551.559 54.7061C552.247 54.7061 552.862 54.5742 553.404 54.3105C553.961 54.0322 554.43 53.666 554.811 53.2119C555.191 52.7432 555.484 52.2085 555.689 51.6079C555.895 51.0073 555.997 50.3848 555.997 49.7402ZM593.417 35.1943L585.375 64.9014L574.476 65.5166L564.588 36.8203L575.003 35.8535L579.222 52.5527L583.309 34.5352L593.417 35.1943ZM605.567 35.0625L604.029 64.9893L594.757 65.4727L593.878 35.6777L605.567 35.0625ZM631.891 48.2461C631.891 49.5205 631.803 50.7949 631.627 52.0693C629.122 52.2305 626.632 52.4941 624.156 52.8604C621.681 53.2119 619.205 53.5635 616.729 53.915C617.11 54.9697 617.704 55.812 618.509 56.4419C619.33 57.0718 620.304 57.3867 621.432 57.3867C622.018 57.3867 622.655 57.2769 623.343 57.0571C624.046 56.8374 624.742 56.5664 625.431 56.2441C626.119 55.9072 626.778 55.5483 627.408 55.1675C628.038 54.7866 628.58 54.4424 629.034 54.1348L627.979 64.1104C627.408 64.5498 626.786 64.9233 626.112 65.231C625.453 65.5386 624.764 65.7876 624.046 65.978C623.329 66.1685 622.604 66.3076 621.871 66.3955C621.139 66.4834 620.421 66.5273 619.718 66.5273C618.268 66.5273 616.942 66.3296 615.741 65.9341C614.54 65.5386 613.448 64.9893 612.467 64.2861C611.5 63.5684 610.65 62.7261 609.918 61.7593C609.186 60.7925 608.578 59.7378 608.094 58.5952C607.611 57.4526 607.245 56.2441 606.996 54.9697C606.747 53.6953 606.622 52.4062 606.622 51.1025C606.622 49.7402 606.747 48.3779 606.996 47.0156C607.245 45.6533 607.618 44.3423 608.116 43.0825C608.629 41.8228 609.266 40.6582 610.028 39.5889C610.804 38.5049 611.705 37.5601 612.73 36.7544C613.756 35.9487 614.913 35.3188 616.202 34.8647C617.506 34.4106 618.941 34.1836 620.509 34.1836C621.812 34.1836 622.999 34.3667 624.068 34.7329C625.152 35.0845 626.112 35.5825 626.947 36.2271C627.796 36.8569 628.529 37.6113 629.144 38.4902C629.774 39.3691 630.287 40.3359 630.682 41.3906C631.092 42.4307 631.393 43.5366 631.583 44.7085C631.788 45.8657 631.891 47.0449 631.891 48.2461ZM623.102 47.1035C623.102 46.6934 623.058 46.2759 622.97 45.8511C622.882 45.4116 622.735 45.0161 622.53 44.6646C622.34 44.313 622.083 44.0273 621.761 43.8076C621.439 43.5732 621.036 43.4561 620.553 43.4561C619.967 43.4561 619.447 43.6172 618.993 43.9395C618.553 44.2471 618.172 44.6426 617.85 45.126C617.528 45.5947 617.264 46.1074 617.059 46.6641C616.854 47.2207 616.7 47.7334 616.598 48.2021L623.102 47.5869V47.1035ZM661.4 54.3545L660.477 64.1104L641.976 65.5605L642.679 34.1836H654.105L652.479 54.3545H661.4ZM673.902 35.0625L672.364 64.9893L663.092 65.4727L662.213 35.6777L673.902 35.0625ZM701.28 58.1777C701.28 59.3936 701.053 60.4409 700.599 61.3198C700.16 62.1987 699.566 62.9458 698.819 63.561C698.072 64.1763 697.208 64.6816 696.227 65.0771C695.26 65.458 694.249 65.7583 693.194 65.978C692.14 66.1978 691.078 66.3442 690.008 66.4175C688.954 66.4907 687.965 66.5273 687.042 66.5273C686.134 66.5273 685.189 66.4907 684.208 66.4175C683.241 66.3589 682.274 66.249 681.307 66.0879C680.34 65.9268 679.388 65.7144 678.451 65.4507C677.513 65.1724 676.627 64.8281 675.792 64.418L675.748 36.1172C676.568 35.7803 677.44 35.48 678.363 35.2163C679.286 34.938 680.223 34.7109 681.175 34.5352C682.142 34.3447 683.102 34.2056 684.054 34.1177C685.006 34.0151 685.929 33.9639 686.822 33.9639C687.862 33.9639 688.91 34.0298 689.964 34.1616C691.034 34.2935 692.059 34.5132 693.041 34.8208C694.022 35.1284 694.938 35.5312 695.787 36.0293C696.637 36.5127 697.376 37.1133 698.006 37.8311C698.651 38.5488 699.149 39.3838 699.5 40.3359C699.867 41.2881 700.05 42.3867 700.05 43.6318C700.05 44.4521 699.933 45.2212 699.698 45.939C699.464 46.6567 699.127 47.3013 698.688 47.8726C698.248 48.4438 697.713 48.9346 697.083 49.3447C696.454 49.7402 695.743 50.0332 694.952 50.2236C695.904 50.4727 696.769 50.8389 697.545 51.3223C698.336 51.8057 699.002 52.3916 699.544 53.0801C700.101 53.7686 700.526 54.5449 700.819 55.4092C701.126 56.2734 701.28 57.1963 701.28 58.1777ZM690.118 45.6533C690.118 45.2285 690.03 44.8696 689.854 44.5767C689.679 44.269 689.459 44.02 689.195 43.8296C688.946 43.6392 688.668 43.5 688.36 43.4121C688.067 43.3242 687.804 43.2803 687.569 43.2803C687.276 43.2803 686.991 43.3242 686.712 43.4121C686.434 43.5 686.163 43.6025 685.899 43.7197L685.768 48.5977C686.104 48.5977 686.522 48.5684 687.02 48.5098C687.518 48.4512 687.994 48.3267 688.448 48.1362C688.917 47.9312 689.312 47.6382 689.635 47.2573C689.957 46.8618 690.118 46.3271 690.118 45.6533ZM686.998 52.8164C686.573 52.8164 686.163 52.8604 685.768 52.9482L685.68 57.958C685.899 58.002 686.112 58.0459 686.317 58.0898C686.537 58.1191 686.749 58.1338 686.954 58.1338C687.262 58.1338 687.599 58.1045 687.965 58.0459C688.331 57.9727 688.675 57.8408 688.998 57.6504C689.32 57.4453 689.583 57.1743 689.789 56.8374C690.008 56.5005 690.118 56.0537 690.118 55.4971C690.118 54.9404 690.008 54.4863 689.789 54.1348C689.583 53.7832 689.327 53.5122 689.02 53.3218C688.712 53.1167 688.375 52.9849 688.009 52.9263C687.643 52.853 687.306 52.8164 686.998 52.8164ZM728.219 44.8184C728.219 45.9609 728.116 47.001 727.911 47.9385C727.721 48.8613 727.413 49.7109 726.988 50.4873C726.563 51.2637 726.014 51.9814 725.34 52.6406C724.667 53.2998 723.854 53.9297 722.901 54.5303L728.131 63.8467L718.243 65.7803L714.859 56.4199L712.135 56.5078L711.739 65.6484H702.291C702.364 62.3086 702.43 58.9834 702.489 55.6729C702.562 52.3623 702.643 49.0371 702.73 45.6973C702.76 44.0127 702.789 42.3428 702.818 40.6875C702.848 39.0322 702.906 37.3623 702.994 35.6777C704.02 35.2969 705.03 34.9819 706.026 34.7329C707.022 34.4839 708.019 34.2935 709.015 34.1616C710.025 34.0151 711.043 33.9199 712.069 33.876C713.109 33.8174 714.171 33.7881 715.255 33.7881C716.925 33.7881 718.536 34.0225 720.089 34.4912C721.656 34.9453 723.041 35.6338 724.242 36.5566C725.443 37.4795 726.402 38.6294 727.12 40.0063C727.853 41.3833 728.219 42.9873 728.219 44.8184ZM718.375 45.5215C718.375 44.9062 718.287 44.3423 718.111 43.8296C717.95 43.3169 717.701 42.8774 717.364 42.5112C717.042 42.1304 716.632 41.8374 716.134 41.6323C715.65 41.4126 715.079 41.3027 714.42 41.3027C714.127 41.3027 713.841 41.3247 713.563 41.3687C713.285 41.3979 713.014 41.4492 712.75 41.5225L712.398 49.6963H712.926C713.556 49.6963 714.193 49.6157 714.837 49.4546C715.497 49.2935 716.083 49.0444 716.595 48.7075C717.123 48.3706 717.547 47.9385 717.87 47.4111C718.207 46.8838 718.375 46.2539 718.375 45.5215ZM757.464 64.1104L746.566 65.5166L745.248 60.5508H740.238L739.139 65.5166L727.933 64.418L736.678 35.1504L748.895 34.5352L757.464 64.1104ZM744.457 53.8271L742.787 46.1807L741.161 53.8271H744.457ZM783.678 44.8184C783.678 45.9609 783.575 47.001 783.37 47.9385C783.18 48.8613 782.872 49.7109 782.447 50.4873C782.022 51.2637 781.473 51.9814 780.799 52.6406C780.125 53.2998 779.312 53.9297 778.36 54.5303L783.59 63.8467L773.702 65.7803L770.318 56.4199L767.594 56.5078L767.198 65.6484H757.75C757.823 62.3086 757.889 58.9834 757.948 55.6729C758.021 52.3623 758.102 49.0371 758.189 45.6973C758.219 44.0127 758.248 42.3428 758.277 40.6875C758.307 39.0322 758.365 37.3623 758.453 35.6777C759.479 35.2969 760.489 34.9819 761.485 34.7329C762.481 34.4839 763.478 34.2935 764.474 34.1616C765.484 34.0151 766.502 33.9199 767.528 33.876C768.568 33.8174 769.63 33.7881 770.714 33.7881C772.384 33.7881 773.995 34.0225 775.548 34.4912C777.115 34.9453 778.5 35.6338 779.701 36.5566C780.902 37.4795 781.861 38.6294 782.579 40.0063C783.312 41.3833 783.678 42.9873 783.678 44.8184ZM773.834 45.5215C773.834 44.9062 773.746 44.3423 773.57 43.8296C773.409 43.3169 773.16 42.8774 772.823 42.5112C772.501 42.1304 772.091 41.8374 771.593 41.6323C771.109 41.4126 770.538 41.3027 769.879 41.3027C769.586 41.3027 769.3 41.3247 769.022 41.3687C768.744 41.3979 768.473 41.4492 768.209 41.5225L767.857 49.6963H768.385C769.015 49.6963 769.652 49.6157 770.296 49.4546C770.956 49.2935 771.542 49.0444 772.054 48.7075C772.582 48.3706 773.006 47.9385 773.329 47.4111C773.666 46.8838 773.834 46.2539 773.834 45.5215ZM811.825 36.249L801.498 53.124L801.805 65.5605H790.511L790.775 53.2119L782.733 36.9082L793.939 35.502L797.455 44.9941L801.278 35.502L811.825 36.249Z" fill="#FFE6D0"/>
<defs>
<filter id="filter0_d_166_142" x="0" y="0" width="1311.01" height="104" filterUnits="userSpaceOnUse" color-interpolation-filters="sRGB">
<feFlood flood-opacity="0" result="BackgroundImageFix"/>
<feColorMatrix in="SourceAlpha" type="matrix" values="0 0 0 0 0 0 0 0 0 0 0 0 0 0 0 0 0 0 127 0" result="hardAlpha"/>
<feOffset dx="-2" dy="4"/>
<feComposite in2="hardAlpha" operator="out"/>
<feColorMatrix type="matrix" values="0 0 0 0 0 0 0 0 0 0 0 0 0 0 0 0 0 0 0.4 0"/>
<feBlend mode="normal" in2="BackgroundImageFix" result="effect1_dropShadow_166_142"/>
<feBlend mode="normal" in="SourceGraphic" in2="effect1_dropShadow_166_142" result="shape"/>
</filter>
</defs>
</svg>
