<svg width="131" height="42" viewBox="0 0 131 42" fill="none" xmlns="http://www.w3.org/2000/svg">
<path d="M125.823 5.37915L122.332 19.1732L128.15 39.8642H7.13452" stroke="#BB2525" stroke-width="3"/>
<path d="M122.573 1H1L6.84488 18.2425L1 35.4851H122.573L116.729 18.2425L122.573 1Z" fill="#FF6969" stroke="#BB2525"/>
<path d="M33.0812 12.834L31.3673 22.9854L27.2071 23.0732L26.3136 17.8145L25.42 22.6924L21.2599 22.8389L19.5314 12.834L23.1642 12.5117L23.8966 18.5908L24.878 12.5117H27.7345L28.8771 18.6641L29.463 12.5117L33.0812 12.834ZM42.1998 22.3701L38.567 22.8389L38.1276 21.1836H36.4576L36.0914 22.8389L32.3561 22.4727L35.2711 12.7168L39.3434 12.5117L42.1998 22.3701ZM37.8639 18.9424L37.3072 16.3936L36.7653 18.9424H37.8639ZM49.2018 12.6729L49.1285 15.7783L46.9459 15.8662L46.6822 22.6631L43.5914 22.8242L43.3131 16.0273L41.1305 16.1445L41.2184 12.6875L49.2018 12.6729ZM56.4015 12.9951L56.1378 16.0859C55.9962 16.0469 55.857 16.02 55.7203 16.0054C55.5836 15.9907 55.4445 15.9834 55.3028 15.9834C54.9562 15.9834 54.6241 16.0273 54.3068 16.1152C53.9943 16.2031 53.7159 16.3374 53.4718 16.5181C53.2325 16.6987 53.0397 16.9282 52.8932 17.2065C52.7516 17.48 52.6808 17.8047 52.6808 18.1807C52.6808 18.4541 52.7198 18.6934 52.798 18.8984C52.881 19.0986 52.9957 19.2671 53.1422 19.4038C53.2936 19.5356 53.4742 19.6357 53.6842 19.7041C53.899 19.7725 54.1359 19.8066 54.3946 19.8066C54.5753 19.8066 54.7609 19.7896 54.9513 19.7554C55.1417 19.7163 55.3321 19.665 55.5226 19.6016C55.713 19.5381 55.8961 19.4648 56.0719 19.3818C56.2477 19.2988 56.4112 19.2109 56.5626 19.1182L56.4454 22.5605C56.255 22.6582 56.0499 22.7461 55.8302 22.8242C55.6105 22.8975 55.3834 22.9609 55.149 23.0146C54.9195 23.0732 54.6876 23.1172 54.4532 23.1465C54.2237 23.1758 54.004 23.1904 53.7941 23.1904C53.1007 23.1904 52.4684 23.061 51.8971 22.8022C51.3307 22.5435 50.8424 22.1919 50.4322 21.7476C50.027 21.2983 49.712 20.7783 49.4874 20.1875C49.2628 19.5967 49.1505 18.9668 49.1505 18.2979C49.1505 17.4971 49.2628 16.75 49.4874 16.0566C49.7169 15.3633 50.0514 14.7627 50.4908 14.2549C50.9352 13.7422 51.482 13.3418 52.1315 13.0537C52.7858 12.7607 53.5353 12.6143 54.38 12.6143C54.7169 12.6143 55.0587 12.6411 55.4054 12.6948C55.7521 12.7485 56.0841 12.8486 56.4015 12.9951ZM65.7985 22.707L62.1363 22.8828L62.107 19.792H60.4225L60.3199 23H57.0387L57.317 12.7021L60.8033 12.8633L60.5836 18.1221H62.2096L62.2242 12.6143L65.5641 12.7021L65.7985 22.707ZM78.5133 19.2939C78.5133 19.8457 78.506 20.3926 78.4913 20.9346C78.4816 21.4717 78.4645 22.0137 78.4401 22.5605L74.2213 22.4873C74.3678 21.623 74.4947 20.7612 74.6022 19.9019C74.7096 19.0376 74.7633 18.166 74.7633 17.2871C74.7633 17.2236 74.7609 17.1211 74.756 16.9795C74.7511 16.8379 74.7413 16.6792 74.7267 16.5034C74.712 16.3228 74.6901 16.1396 74.6608 15.9541C74.6363 15.7637 74.5997 15.5903 74.5509 15.4341C74.507 15.2778 74.4508 15.1509 74.3824 15.0532C74.319 14.9507 74.2408 14.8994 74.1481 14.8994C73.982 14.8994 73.8404 14.9482 73.7233 15.0459C73.611 15.1436 73.5157 15.2705 73.4376 15.4268C73.3644 15.5781 73.3058 15.749 73.2618 15.9395C73.2179 16.1299 73.1837 16.3203 73.1593 16.5107C73.1398 16.7012 73.1251 16.8818 73.1153 17.0527C73.1105 17.2188 73.108 17.3555 73.108 17.4629C73.0836 18.3271 73.0641 19.1865 73.0494 20.041C73.0348 20.8906 73.0153 21.75 72.9908 22.6191L69.2555 22.7803C69.3531 21.0566 69.4459 19.3428 69.5338 17.6387C69.6266 15.9346 69.6998 14.2207 69.7535 12.4971L73.2106 12.3213L73.1813 13.4932C73.318 13.3271 73.4645 13.1709 73.6207 13.0244C73.7819 12.8779 73.9528 12.7534 74.1334 12.6509C74.3141 12.5435 74.5045 12.4604 74.7047 12.4019C74.9098 12.3384 75.1246 12.3066 75.3492 12.3066C75.7643 12.3066 76.128 12.375 76.4405 12.5117C76.753 12.6484 77.0216 12.834 77.2462 13.0684C77.4708 13.3027 77.6588 13.5811 77.8102 13.9033C77.9615 14.2207 78.0836 14.5601 78.1764 14.9214C78.2692 15.2827 78.34 15.6611 78.3888 16.0566C78.4376 16.4473 78.4694 16.833 78.484 17.2139C78.5035 17.5947 78.5133 17.9634 78.5133 18.3198C78.5133 18.6763 78.5133 19.001 78.5133 19.2939ZM88.2618 17.3896C88.2618 17.834 88.2106 18.2637 88.108 18.6787C88.0055 19.0889 87.8566 19.4746 87.6612 19.8359C87.4708 20.1973 87.2364 20.5293 86.9581 20.832C86.6847 21.1299 86.3746 21.3862 86.0279 21.6011C85.6861 21.8159 85.3126 21.9844 84.9073 22.1064C84.5021 22.2236 84.0724 22.2822 83.6183 22.2822C83.1788 22.2822 82.7589 22.2261 82.3585 22.1138C81.963 22.0015 81.5919 21.8452 81.2452 21.645C80.8986 21.4399 80.5836 21.1958 80.3004 20.9126C80.0221 20.6245 79.7828 20.3071 79.5826 19.9604C79.3873 19.6089 79.2335 19.2329 79.1212 18.8325C79.0138 18.4321 78.9601 18.0146 78.9601 17.5801C78.9601 17.1553 79.0113 16.7402 79.1139 16.335C79.2164 15.9248 79.3629 15.5391 79.5533 15.1777C79.7486 14.8164 79.983 14.4844 80.2565 14.1816C80.5299 13.8789 80.8351 13.6177 81.172 13.3979C81.5138 13.1782 81.8824 13.0073 82.2779 12.8853C82.6735 12.7632 83.0909 12.7021 83.5304 12.7021C84.2384 12.7021 84.8829 12.812 85.464 13.0317C86.0499 13.2515 86.548 13.5664 86.9581 13.9766C87.3732 14.3818 87.693 14.875 87.9176 15.4561C88.1471 16.0322 88.2618 16.6768 88.2618 17.3896ZM85.0099 17.5801C85.0099 17.3701 84.9781 17.1675 84.9147 16.9722C84.8561 16.772 84.7682 16.5962 84.651 16.4448C84.5338 16.2886 84.3873 16.1641 84.2115 16.0713C84.0406 15.9736 83.8429 15.9248 83.6183 15.9248C83.3888 15.9248 83.1837 15.9663 83.003 16.0493C82.8224 16.1323 82.6661 16.2471 82.5343 16.3936C82.4073 16.5352 82.3097 16.7036 82.2413 16.8989C82.173 17.0894 82.1388 17.292 82.1388 17.5068C82.1388 17.7119 82.1681 17.917 82.2267 18.1221C82.2853 18.3271 82.3732 18.5127 82.4903 18.6787C82.6075 18.8447 82.7516 18.979 82.9225 19.0815C83.0983 19.1841 83.3009 19.2354 83.5304 19.2354C83.7599 19.2354 83.965 19.1914 84.1456 19.1035C84.3312 19.0107 84.4874 18.8887 84.6144 18.7373C84.7413 18.5811 84.839 18.4028 84.9073 18.2026C84.9757 18.0024 85.0099 17.7949 85.0099 17.5801ZM101.797 12.834L100.083 22.6924L95.923 22.7803L95.0294 17.8145L94.1359 22.3994L89.9757 22.5459L88.2472 13.127L91.88 12.8047L92.6124 18.5908L93.5939 13.2441H96.4503L97.5929 18.6641L98.1788 12.5117L101.797 12.834Z" fill="#FFE6D0"/>
</svg>
