<svg width="180" height="58" viewBox="0 0 180 58" fill="none" xmlns="http://www.w3.org/2000/svg">
<path d="M174.76 7.21045L169.901 26.7736L178 56.1183H9.53947" stroke="#BB2525" stroke-width="3"/>
<path d="M170.237 1H1L9.13639 25.4539L1 49.9079H170.237L162.1 25.4539L170.237 1Z" fill="#FF6969" stroke="#BB2525"/>
<path d="M48.097 27.1086C48.097 28.5357 47.847 29.7857 47.347 30.8586C46.8575 31.9211 46.1804 32.8066 45.3158 33.5149C44.4616 34.2232 43.4564 34.7545 42.3002 35.1086C41.1543 35.4628 39.92 35.6399 38.597 35.6399C38.0866 35.6399 37.5241 35.5722 36.9095 35.4368C36.3054 35.3014 35.6908 35.1347 35.0658 34.9368C34.4408 34.7284 33.8366 34.5097 33.2533 34.2805C32.6804 34.0409 32.17 33.817 31.722 33.6086L32.4095 27.1711C33.295 27.7024 34.2741 28.1086 35.347 28.3899C36.4304 28.6607 37.4929 28.7961 38.5345 28.7961C38.7325 28.7961 38.972 28.7909 39.2533 28.7805C39.5345 28.7597 39.8002 28.7128 40.0502 28.6399C40.3106 28.5566 40.5293 28.4368 40.7064 28.2805C40.8835 28.1243 40.972 27.9003 40.972 27.6086C40.972 27.4107 40.9095 27.2441 40.7845 27.1086C40.6595 26.9628 40.4981 26.8482 40.3002 26.7649C40.1022 26.6711 39.8783 26.6034 39.6283 26.5618C39.3783 26.5097 39.1335 26.4732 38.8939 26.4524C38.6543 26.4316 38.4304 26.4211 38.222 26.4211C38.0137 26.4211 37.847 26.4211 37.722 26.4211C36.8262 26.4211 36.0085 26.2649 35.2689 25.9524C34.5397 25.6399 33.9095 25.2076 33.3783 24.6555C32.8575 24.093 32.4512 23.4316 32.1595 22.6711C31.8679 21.9003 31.722 21.067 31.722 20.1711C31.722 18.942 31.9668 17.843 32.4564 16.8743C32.9564 15.8951 33.6179 15.067 34.4408 14.3899C35.2741 13.7024 36.2272 13.1764 37.3002 12.8118C38.3731 12.4472 39.4825 12.2649 40.6283 12.2649C41.1387 12.2649 41.6647 12.2857 42.2064 12.3274C42.7481 12.3586 43.2845 12.4211 43.8158 12.5149C44.3575 12.6086 44.8835 12.7284 45.3939 12.8743C45.9043 13.0201 46.3887 13.2024 46.847 13.4211L46.2533 19.7649C45.545 19.5253 44.8002 19.3274 44.0189 19.1711C43.2481 19.0045 42.4929 18.9211 41.7533 18.9211C41.6179 18.9211 41.4408 18.9264 41.222 18.9368C41.0137 18.9368 40.7897 18.9524 40.5502 18.9836C40.321 19.0045 40.0866 19.0409 39.847 19.093C39.6075 19.1451 39.3939 19.218 39.2064 19.3118C39.0189 19.3951 38.8679 19.5097 38.7533 19.6555C38.6387 19.8014 38.5866 19.9732 38.597 20.1711C38.6075 20.4003 38.6908 20.5878 38.847 20.7336C39.0137 20.8691 39.222 20.9784 39.472 21.0618C39.7325 21.1347 40.0137 21.1868 40.3158 21.218C40.6283 21.2493 40.9356 21.2701 41.2377 21.2805C41.5397 21.2805 41.821 21.2805 42.0814 21.2805C42.3418 21.2701 42.5554 21.2753 42.722 21.2961C43.5554 21.3482 44.3054 21.5253 44.972 21.8274C45.6387 22.1295 46.2012 22.5305 46.6595 23.0305C47.1283 23.5305 47.4825 24.1295 47.722 24.8274C47.972 25.5149 48.097 26.2753 48.097 27.1086ZM57.5345 13.4211L55.8158 34.7024L49.222 35.0461V13.8586L57.5345 13.4211ZM77.3314 32.2336C76.8418 32.8482 76.2377 33.3847 75.5189 33.843C74.8002 34.3014 74.0293 34.6816 73.2064 34.9836C72.3835 35.2857 71.5397 35.5097 70.6752 35.6555C69.8106 35.8118 68.9877 35.8899 68.2064 35.8899C66.696 35.8899 65.3054 35.6191 64.0345 35.0774C62.7637 34.5357 61.6647 33.7909 60.7377 32.843C59.821 31.8847 59.1022 30.7597 58.5814 29.468C58.0606 28.1764 57.8002 26.7857 57.8002 25.2961C57.8002 24.1607 57.9304 23.0514 58.1908 21.968C58.4512 20.8743 58.821 19.8482 59.3002 18.8899C59.7897 17.9211 60.3835 17.0357 61.0814 16.2336C61.7793 15.4211 62.571 14.7232 63.4564 14.1399C64.3418 13.5566 65.3106 13.1034 66.3627 12.7805C67.4147 12.4576 68.5397 12.2961 69.7377 12.2961C70.1856 12.2961 70.6647 12.317 71.1752 12.3586C71.6856 12.3899 72.1908 12.4524 72.6908 12.5461C73.2012 12.6295 73.696 12.7493 74.1752 12.9055C74.6543 13.0618 75.0918 13.2545 75.4877 13.4836L75.0502 19.4524C74.4668 19.2336 73.8627 19.0878 73.2377 19.0149C72.6231 18.9316 72.0189 18.8899 71.4252 18.8899C70.5918 18.8899 69.8106 19.0201 69.0814 19.2805C68.3627 19.5305 67.7325 19.8951 67.1908 20.3743C66.6595 20.8534 66.2377 21.4368 65.9252 22.1243C65.6127 22.8118 65.4564 23.5878 65.4564 24.4524C65.4564 24.9941 65.5293 25.5201 65.6752 26.0305C65.821 26.5305 66.0397 26.9784 66.3314 27.3743C66.6335 27.7597 67.0033 28.0722 67.4408 28.3118C67.8887 28.5514 68.4043 28.6711 68.9877 28.6711C69.3835 28.6711 69.7897 28.6191 70.2064 28.5149C70.6335 28.4107 70.9981 28.2336 71.3002 27.9836L71.3627 26.7649L67.6127 26.7024L67.8002 22.0149C69.3522 21.9628 70.9043 21.9211 72.4564 21.8899C74.0085 21.8482 75.571 21.7961 77.1439 21.7336L77.3314 32.2336ZM99.7845 13.0149L98.6595 34.2024L90.472 34.9524L86.097 23.6086L85.4095 35.1711H78.3783L78.9408 13.0149L86.7533 12.6399L92.1595 23.8899L92.4095 13.2649L99.7845 13.0149ZM115.472 13.4211L114.378 34.7024L107.785 35.0461L107.16 13.8586L115.472 13.4211ZM136.144 27.5149C136.144 28.692 136.128 29.8586 136.097 31.0149C136.076 32.1607 136.04 33.317 135.988 34.4836L126.988 34.3274C127.3 32.4836 127.571 30.6451 127.8 28.8118C128.029 26.968 128.144 25.1086 128.144 23.2336C128.144 23.0982 128.139 22.8795 128.128 22.5774C128.118 22.2753 128.097 21.9368 128.066 21.5618C128.035 21.1764 127.988 20.7857 127.925 20.3899C127.873 19.9836 127.795 19.6139 127.691 19.2805C127.597 18.9472 127.477 18.6764 127.331 18.468C127.196 18.2493 127.029 18.1399 126.831 18.1399C126.477 18.1399 126.175 18.2441 125.925 18.4524C125.686 18.6607 125.482 18.9316 125.316 19.2649C125.16 19.5878 125.035 19.9524 124.941 20.3586C124.847 20.7649 124.774 21.1711 124.722 21.5774C124.68 21.9836 124.649 22.3691 124.628 22.7336C124.618 23.0878 124.613 23.3795 124.613 23.6086C124.561 25.4524 124.519 27.2857 124.488 29.1086C124.456 30.9211 124.415 32.7545 124.363 34.6086L116.394 34.9524C116.602 31.2753 116.8 27.6191 116.988 23.9836C117.186 20.3482 117.342 16.692 117.456 13.0149L124.831 12.6399L124.769 15.1399C125.061 14.7857 125.373 14.4524 125.706 14.1399C126.05 13.8274 126.415 13.5618 126.8 13.343C127.186 13.1139 127.592 12.9368 128.019 12.8118C128.456 12.6764 128.915 12.6086 129.394 12.6086C130.279 12.6086 131.055 12.7545 131.722 13.0461C132.389 13.3378 132.962 13.7336 133.441 14.2336C133.92 14.7336 134.321 15.3274 134.644 16.0149C134.967 16.692 135.227 17.4159 135.425 18.1868C135.623 18.9576 135.774 19.7649 135.878 20.6086C135.982 21.442 136.05 22.2649 136.081 23.0774C136.123 23.8899 136.144 24.6764 136.144 25.4368C136.144 26.1972 136.144 26.8899 136.144 27.5149Z" fill="#FFE6D0"/>
</svg>
