<svg width="180" height="58" viewBox="0 0 180 58" fill="none" xmlns="http://www.w3.org/2000/svg">
<path d="M174.76 7.21045L169.901 26.7736L178 56.1183H9.53946" stroke="#BB2525" stroke-width="3"/>
<path d="M170.237 1H1L9.13639 25.4539L1 49.9079H170.237L162.1 25.4539L170.237 1Z" fill="#FF6969" stroke="#BB2525"/>
<path d="M43.7533 27.1086C43.7533 28.5357 43.5033 29.7857 43.0033 30.8586C42.5137 31.9211 41.8366 32.8066 40.972 33.5149C40.1179 34.2232 39.1127 34.7545 37.9564 35.1086C36.8106 35.4628 35.5762 35.6399 34.2533 35.6399C33.7429 35.6399 33.1804 35.5722 32.5658 35.4368C31.9616 35.3014 31.347 35.1347 30.722 34.9368C30.097 34.7284 29.4929 34.5097 28.9095 34.2805C28.3366 34.0409 27.8262 33.817 27.3783 33.6086L28.0658 27.1711C28.9512 27.7024 29.9304 28.1086 31.0033 28.3899C32.0866 28.6607 33.1491 28.7961 34.1908 28.7961C34.3887 28.7961 34.6283 28.7909 34.9095 28.7805C35.1908 28.7597 35.4564 28.7128 35.7064 28.6399C35.9668 28.5566 36.1856 28.4368 36.3627 28.2805C36.5398 28.1243 36.6283 27.9003 36.6283 27.6086C36.6283 27.4107 36.5658 27.2441 36.4408 27.1086C36.3158 26.9628 36.1543 26.8482 35.9564 26.7649C35.7585 26.6711 35.5345 26.6034 35.2845 26.5618C35.0345 26.5097 34.7898 26.4732 34.5502 26.4524C34.3106 26.4316 34.0866 26.4211 33.8783 26.4211C33.67 26.4211 33.5033 26.4211 33.3783 26.4211C32.4825 26.4211 31.6648 26.2649 30.9252 25.9524C30.196 25.6399 29.5658 25.2076 29.0345 24.6555C28.5137 24.093 28.1075 23.4316 27.8158 22.6711C27.5241 21.9003 27.3783 21.067 27.3783 20.1711C27.3783 18.942 27.6231 17.843 28.1127 16.8743C28.6127 15.8951 29.2741 15.067 30.097 14.3899C30.9304 13.7024 31.8835 13.1764 32.9564 12.8118C34.0293 12.4472 35.1387 12.2649 36.2845 12.2649C36.795 12.2649 37.321 12.2857 37.8627 12.3274C38.4043 12.3586 38.9408 12.4211 39.472 12.5149C40.0137 12.6086 40.5398 12.7284 41.0502 12.8743C41.5606 13.0201 42.045 13.2024 42.5033 13.4211L41.9095 19.7649C41.2012 19.5253 40.4564 19.3274 39.6752 19.1711C38.9043 19.0045 38.1491 18.9211 37.4095 18.9211C37.2741 18.9211 37.097 18.9264 36.8783 18.9368C36.67 18.9368 36.446 18.9524 36.2064 18.9836C35.9773 19.0045 35.7429 19.0409 35.5033 19.093C35.2637 19.1451 35.0502 19.218 34.8627 19.3118C34.6752 19.3951 34.5241 19.5097 34.4095 19.6555C34.295 19.8014 34.2429 19.9732 34.2533 20.1711C34.2637 20.4003 34.347 20.5878 34.5033 20.7336C34.67 20.8691 34.8783 20.9784 35.1283 21.0618C35.3887 21.1347 35.67 21.1868 35.972 21.218C36.2845 21.2493 36.5918 21.2701 36.8939 21.2805C37.196 21.2805 37.4773 21.2805 37.7377 21.2805C37.9981 21.2701 38.2116 21.2753 38.3783 21.2961C39.2116 21.3482 39.9616 21.5253 40.6283 21.8274C41.295 22.1295 41.8575 22.5305 42.3158 23.0305C42.7845 23.5305 43.1387 24.1295 43.3783 24.8274C43.6283 25.5149 43.7533 26.2753 43.7533 27.1086ZM53.1908 13.4211L51.472 34.7024L44.8783 35.0461V13.8586L53.1908 13.4211ZM72.9877 32.2336C72.4981 32.8482 71.8939 33.3847 71.1752 33.843C70.4564 34.3014 69.6856 34.6816 68.8627 34.9836C68.0398 35.2857 67.196 35.5097 66.3314 35.6555C65.4668 35.8118 64.6439 35.8899 63.8627 35.8899C62.3523 35.8899 60.9616 35.6191 59.6908 35.0774C58.42 34.5357 57.321 33.7909 56.3939 32.843C55.4773 31.8847 54.7585 30.7597 54.2377 29.468C53.7168 28.1764 53.4564 26.7857 53.4564 25.2961C53.4564 24.1607 53.5866 23.0514 53.847 21.968C54.1075 20.8743 54.4773 19.8482 54.9564 18.8899C55.446 17.9211 56.0398 17.0357 56.7377 16.2336C57.4356 15.4211 58.2273 14.7232 59.1127 14.1399C59.9981 13.5566 60.9668 13.1034 62.0189 12.7805C63.071 12.4576 64.196 12.2961 65.3939 12.2961C65.8418 12.2961 66.321 12.317 66.8314 12.3586C67.3418 12.3899 67.847 12.4524 68.347 12.5461C68.8575 12.6295 69.3523 12.7493 69.8314 12.9055C70.3106 13.0618 70.7481 13.2545 71.1439 13.4836L70.7064 19.4524C70.1231 19.2336 69.5189 19.0878 68.8939 19.0149C68.2793 18.9316 67.6752 18.8899 67.0814 18.8899C66.2481 18.8899 65.4668 19.0201 64.7377 19.2805C64.0189 19.5305 63.3887 19.8951 62.847 20.3743C62.3158 20.8534 61.8939 21.4368 61.5814 22.1243C61.2689 22.8118 61.1127 23.5878 61.1127 24.4524C61.1127 24.9941 61.1856 25.5201 61.3314 26.0305C61.4773 26.5305 61.696 26.9784 61.9877 27.3743C62.2898 27.7597 62.6595 28.0722 63.097 28.3118C63.545 28.5514 64.0606 28.6711 64.6439 28.6711C65.0398 28.6711 65.446 28.6191 65.8627 28.5149C66.2898 28.4107 66.6543 28.2336 66.9564 27.9836L67.0189 26.7649L63.2689 26.7024L63.4564 22.0149C65.0085 21.9628 66.5606 21.9211 68.1127 21.8899C69.6648 21.8482 71.2273 21.7961 72.8002 21.7336L72.9877 32.2336ZM95.4408 13.0149L94.3158 34.2024L86.1283 34.9524L81.7533 23.6086L81.0658 35.1711H74.0345L74.597 13.0149L82.4095 12.6399L87.8158 23.8899L88.0658 13.2649L95.4408 13.0149ZM121.66 18.0461C121.66 18.817 121.623 19.6659 121.55 20.593C121.477 21.5201 121.357 22.4784 121.191 23.468C121.024 24.4576 120.805 25.4628 120.535 26.4836C120.274 27.4941 119.946 28.468 119.55 29.4055C119.154 30.343 118.691 31.2232 118.16 32.0461C117.639 32.8586 117.035 33.5722 116.347 34.1868C115.67 34.7909 114.91 35.2649 114.066 35.6086C113.222 35.9628 112.285 36.1399 111.253 36.1399C110.045 36.1399 108.993 35.942 108.097 35.5461C107.212 35.1607 106.451 34.6399 105.816 33.9836C105.18 33.317 104.66 32.5461 104.253 31.6711C103.847 30.7857 103.529 29.8534 103.3 28.8743C103.071 27.8847 102.91 26.8795 102.816 25.8586C102.732 24.8274 102.691 23.8378 102.691 22.8899C102.691 21.4316 102.764 19.9784 102.91 18.5305C103.055 17.0722 103.264 15.6191 103.535 14.1711L110.847 14.4524C110.566 16.0878 110.321 17.7336 110.113 19.3899C109.915 21.0357 109.816 22.692 109.816 24.3586C109.816 24.5357 109.821 24.8014 109.831 25.1555C109.852 25.4993 109.884 25.8899 109.925 26.3274C109.967 26.7545 110.024 27.1972 110.097 27.6555C110.18 28.1034 110.29 28.5149 110.425 28.8899C110.561 29.2649 110.722 29.5722 110.91 29.8118C111.107 30.0514 111.337 30.1711 111.597 30.1711C111.899 30.1711 112.17 30.0305 112.41 29.7493C112.649 29.4576 112.857 29.0722 113.035 28.593C113.222 28.1139 113.384 27.5618 113.519 26.9368C113.654 26.3118 113.769 25.6607 113.863 24.9836C113.956 24.3066 114.029 23.6295 114.081 22.9524C114.144 22.2753 114.191 21.6451 114.222 21.0618C114.264 20.4784 114.29 19.9628 114.3 19.5149C114.311 19.067 114.316 18.7336 114.316 18.5149C114.316 17.7024 114.3 16.8951 114.269 16.093C114.248 15.2805 114.212 14.4732 114.16 13.6711H121.472C121.597 15.1086 121.66 16.567 121.66 18.0461ZM141.113 20.3899C141.113 21.4003 140.962 22.2961 140.66 23.0774C140.357 23.8586 139.941 24.5409 139.41 25.1243C138.889 25.7076 138.274 26.2024 137.566 26.6086C136.857 27.0149 136.097 27.3482 135.285 27.6086C134.482 27.8586 133.649 28.0461 132.785 28.1711C131.92 28.2857 131.071 28.3482 130.238 28.3586V35.6399H122.956C122.956 33.2545 122.962 30.8795 122.972 28.5149C122.982 26.1503 122.998 23.7649 123.019 21.3586C123.04 20.0878 123.045 18.817 123.035 17.5461C123.024 16.2753 123.05 14.9941 123.113 13.7024C124.446 13.3066 125.779 13.0097 127.113 12.8118C128.446 12.6139 129.821 12.5149 131.238 12.5149C132.04 12.5149 132.842 12.5826 133.644 12.718C134.446 12.843 135.212 13.0461 135.941 13.3274C136.68 13.6086 137.363 13.9628 137.988 14.3899C138.623 14.8066 139.17 15.3066 139.628 15.8899C140.087 16.4732 140.446 17.1399 140.706 17.8899C140.977 18.6295 141.113 19.4628 141.113 20.3899ZM134.175 20.9211C134.175 20.2441 133.967 19.718 133.55 19.343C133.144 18.9576 132.613 18.7649 131.956 18.7649C131.738 18.7649 131.509 18.7857 131.269 18.8274C131.04 18.8586 130.821 18.9003 130.613 18.9524L130.425 23.5149C130.571 23.5357 130.712 23.5461 130.847 23.5461C130.982 23.5461 131.123 23.5461 131.269 23.5461C131.644 23.5461 132.003 23.4836 132.347 23.3586C132.701 23.2336 133.014 23.0566 133.285 22.8274C133.555 22.5878 133.769 22.3118 133.925 21.9993C134.092 21.6764 134.175 21.317 134.175 20.9211Z" fill="#FFE6D0"/>
</svg>
