<svg width="1312" height="104" viewBox="0 0 1312 104" fill="none" xmlns="http://www.w3.org/2000/svg">
<g filter="url(#filter0_d_166_162)">
<path fill-rule="evenodd" clip-rule="evenodd" d="M3.12852 8.15251C0.474164 4.88484 2.79956 0 7.00946 0H1306C1310.21 0 1312.54 4.88485 1309.88 8.15252L1278.45 46.8475C1276.96 48.6843 1276.96 51.3157 1278.45 53.1525L1309.88 91.8475C1312.54 95.1152 1310.21 100 1306 100H7.00945C2.79955 100 0.474163 95.1152 3.12852 91.8475L34.5607 53.1525C36.0528 51.3157 36.0528 48.6843 34.5607 46.8475L3.12852 8.15251ZM661.506 10C661.506 12.7614 659.268 15 656.506 15C653.745 15 651.506 12.7614 651.506 10C651.506 7.23858 653.745 5 656.506 5C659.268 5 661.506 7.23858 661.506 10ZM656.506 95C659.268 95 661.506 92.7614 661.506 90C661.506 87.2386 659.268 85 656.506 85C653.745 85 651.506 87.2386 651.506 90C651.506 92.7614 653.745 95 656.506 95ZM681.506 10C681.506 12.7614 679.268 15 676.506 15C673.745 15 671.506 12.7614 671.506 10C671.506 7.23858 673.745 5 676.506 5C679.268 5 681.506 7.23858 681.506 10ZM676.506 95C679.268 95 681.506 92.7614 681.506 90C681.506 87.2386 679.268 85 676.506 85C673.745 85 671.506 87.2386 671.506 90C671.506 92.7614 673.745 95 676.506 95ZM701.506 10C701.506 12.7614 699.268 15 696.506 15C693.745 15 691.506 12.7614 691.506 10C691.506 7.23858 693.745 5 696.506 5C699.268 5 701.506 7.23858 701.506 10ZM696.506 95C699.268 95 701.506 92.7614 701.506 90C701.506 87.2386 699.268 85 696.506 85C693.745 85 691.506 87.2386 691.506 90C691.506 92.7614 693.745 95 696.506 95ZM721.506 10C721.506 12.7614 719.268 15 716.506 15C713.745 15 711.506 12.7614 711.506 10C711.506 7.23858 713.745 5 716.506 5C719.268 5 721.506 7.23858 721.506 10ZM716.506 95C719.268 95 721.506 92.7614 721.506 90C721.506 87.2386 719.268 85 716.506 85C713.745 85 711.506 87.2386 711.506 90C711.506 92.7614 713.745 95 716.506 95ZM741.506 10C741.506 12.7614 739.268 15 736.506 15C733.745 15 731.506 12.7614 731.506 10C731.506 7.23858 733.745 5 736.506 5C739.268 5 741.506 7.23858 741.506 10ZM736.506 95C739.268 95 741.506 92.7614 741.506 90C741.506 87.2386 739.268 85 736.506 85C733.745 85 731.506 87.2386 731.506 90C731.506 92.7614 733.745 95 736.506 95ZM761.506 10C761.506 12.7614 759.268 15 756.506 15C753.745 15 751.506 12.7614 751.506 10C751.506 7.23858 753.745 5 756.506 5C759.268 5 761.506 7.23858 761.506 10ZM756.506 95C759.268 95 761.506 92.7614 761.506 90C761.506 87.2386 759.268 85 756.506 85C753.745 85 751.506 87.2386 751.506 90C751.506 92.7614 753.745 95 756.506 95ZM781.506 10C781.506 12.7614 779.268 15 776.506 15C773.745 15 771.506 12.7614 771.506 10C771.506 7.23858 773.745 5 776.506 5C779.268 5 781.506 7.23858 781.506 10ZM776.506 95C779.268 95 781.506 92.7614 781.506 90C781.506 87.2386 779.268 85 776.506 85C773.745 85 771.506 87.2386 771.506 90C771.506 92.7614 773.745 95 776.506 95ZM801.506 10C801.506 12.7614 799.268 15 796.506 15C793.745 15 791.506 12.7614 791.506 10C791.506 7.23858 793.745 5 796.506 5C799.268 5 801.506 7.23858 801.506 10ZM796.506 95C799.268 95 801.506 92.7614 801.506 90C801.506 87.2386 799.268 85 796.506 85C793.745 85 791.506 87.2386 791.506 90C791.506 92.7614 793.745 95 796.506 95ZM821.506 10C821.506 12.7614 819.268 15 816.506 15C813.745 15 811.506 12.7614 811.506 10C811.506 7.23858 813.745 5 816.506 5C819.268 5 821.506 7.23858 821.506 10ZM816.506 95C819.268 95 821.506 92.7614 821.506 90C821.506 87.2386 819.268 85 816.506 85C813.745 85 811.506 87.2386 811.506 90C811.506 92.7614 813.745 95 816.506 95ZM841.506 10C841.506 12.7614 839.268 15 836.506 15C833.745 15 831.506 12.7614 831.506 10C831.506 7.23858 833.745 5 836.506 5C839.268 5 841.506 7.23858 841.506 10ZM836.506 95C839.268 95 841.506 92.7614 841.506 90C841.506 87.2386 839.268 85 836.506 85C833.745 85 831.506 87.2386 831.506 90C831.506 92.7614 833.745 95 836.506 95ZM861.506 10C861.506 12.7614 859.268 15 856.506 15C853.745 15 851.506 12.7614 851.506 10C851.506 7.23858 853.745 5 856.506 5C859.268 5 861.506 7.23858 861.506 10ZM856.506 95C859.268 95 861.506 92.7614 861.506 90C861.506 87.2386 859.268 85 856.506 85C853.745 85 851.506 87.2386 851.506 90C851.506 92.7614 853.745 95 856.506 95ZM881.506 10C881.506 12.7614 879.268 15 876.506 15C873.745 15 871.506 12.7614 871.506 10C871.506 7.23858 873.745 5 876.506 5C879.268 5 881.506 7.23858 881.506 10ZM876.506 95C879.268 95 881.506 92.7614 881.506 90C881.506 87.2386 879.268 85 876.506 85C873.745 85 871.506 87.2386 871.506 90C871.506 92.7614 873.745 95 876.506 95ZM901.506 10C901.506 12.7614 899.268 15 896.506 15C893.745 15 891.506 12.7614 891.506 10C891.506 7.23858 893.745 5 896.506 5C899.268 5 901.506 7.23858 901.506 10ZM896.506 95C899.268 95 901.506 92.7614 901.506 90C901.506 87.2386 899.268 85 896.506 85C893.745 85 891.506 87.2386 891.506 90C891.506 92.7614 893.745 95 896.506 95ZM921.506 10C921.506 12.7614 919.268 15 916.506 15C913.745 15 911.506 12.7614 911.506 10C911.506 7.23858 913.745 5 916.506 5C919.268 5 921.506 7.23858 921.506 10ZM916.506 95C919.268 95 921.506 92.7614 921.506 90C921.506 87.2386 919.268 85 916.506 85C913.745 85 911.506 87.2386 911.506 90C911.506 92.7614 913.745 95 916.506 95ZM941.506 10C941.506 12.7614 939.268 15 936.506 15C933.745 15 931.506 12.7614 931.506 10C931.506 7.23858 933.745 5 936.506 5C939.268 5 941.506 7.23858 941.506 10ZM936.506 95C939.268 95 941.506 92.7614 941.506 90C941.506 87.2386 939.268 85 936.506 85C933.745 85 931.506 87.2386 931.506 90C931.506 92.7614 933.745 95 936.506 95ZM961.506 10C961.506 12.7614 959.268 15 956.506 15C953.745 15 951.506 12.7614 951.506 10C951.506 7.23858 953.745 5 956.506 5C959.268 5 961.506 7.23858 961.506 10ZM956.506 95C959.268 95 961.506 92.7614 961.506 90C961.506 87.2386 959.268 85 956.506 85C953.745 85 951.506 87.2386 951.506 90C951.506 92.7614 953.745 95 956.506 95ZM981.506 10C981.506 12.7614 979.268 15 976.506 15C973.745 15 971.506 12.7614 971.506 10C971.506 7.23858 973.745 5 976.506 5C979.268 5 981.506 7.23858 981.506 10ZM976.506 95C979.268 95 981.506 92.7614 981.506 90C981.506 87.2386 979.268 85 976.506 85C973.745 85 971.506 87.2386 971.506 90C971.506 92.7614 973.745 95 976.506 95ZM1001.51 10C1001.51 12.7614 999.268 15 996.506 15C993.745 15 991.506 12.7614 991.506 10C991.506 7.23858 993.745 5 996.506 5C999.268 5 1001.51 7.23858 1001.51 10ZM996.506 95C999.268 95 1001.51 92.7614 1001.51 90C1001.51 87.2386 999.268 85 996.506 85C993.745 85 991.506 87.2386 991.506 90C991.506 92.7614 993.745 95 996.506 95ZM1021.51 10C1021.51 12.7614 1019.27 15 1016.51 15C1013.74 15 1011.51 12.7614 1011.51 10C1011.51 7.23858 1013.74 5 1016.51 5C1019.27 5 1021.51 7.23858 1021.51 10ZM1016.51 95C1019.27 95 1021.51 92.7614 1021.51 90C1021.51 87.2386 1019.27 85 1016.51 85C1013.74 85 1011.51 87.2386 1011.51 90C1011.51 92.7614 1013.74 95 1016.51 95ZM1041.51 10C1041.51 12.7614 1039.27 15 1036.51 15C1033.74 15 1031.51 12.7614 1031.51 10C1031.51 7.23858 1033.74 5 1036.51 5C1039.27 5 1041.51 7.23858 1041.51 10ZM1036.51 95C1039.27 95 1041.51 92.7614 1041.51 90C1041.51 87.2386 1039.27 85 1036.51 85C1033.74 85 1031.51 87.2386 1031.51 90C1031.51 92.7614 1033.74 95 1036.51 95ZM1061.51 10C1061.51 12.7614 1059.27 15 1056.51 15C1053.74 15 1051.51 12.7614 1051.51 10C1051.51 7.23858 1053.74 5 1056.51 5C1059.27 5 1061.51 7.23858 1061.51 10ZM1056.51 95C1059.27 95 1061.51 92.7614 1061.51 90C1061.51 87.2386 1059.27 85 1056.51 85C1053.74 85 1051.51 87.2386 1051.51 90C1051.51 92.7614 1053.74 95 1056.51 95ZM1081.51 10C1081.51 12.7614 1079.27 15 1076.51 15C1073.74 15 1071.51 12.7614 1071.51 10C1071.51 7.23858 1073.74 5 1076.51 5C1079.27 5 1081.51 7.23858 1081.51 10ZM1076.51 95C1079.27 95 1081.51 92.7614 1081.51 90C1081.51 87.2386 1079.27 85 1076.51 85C1073.74 85 1071.51 87.2386 1071.51 90C1071.51 92.7614 1073.74 95 1076.51 95ZM1101.51 10C1101.51 12.7614 1099.27 15 1096.51 15C1093.74 15 1091.51 12.7614 1091.51 10C1091.51 7.23858 1093.74 5 1096.51 5C1099.27 5 1101.51 7.23858 1101.51 10ZM1096.51 95C1099.27 95 1101.51 92.7614 1101.51 90C1101.51 87.2386 1099.27 85 1096.51 85C1093.74 85 1091.51 87.2386 1091.51 90C1091.51 92.7614 1093.74 95 1096.51 95ZM1121.51 10C1121.51 12.7614 1119.27 15 1116.51 15C1113.74 15 1111.51 12.7614 1111.51 10C1111.51 7.23858 1113.74 5 1116.51 5C1119.27 5 1121.51 7.23858 1121.51 10ZM1116.51 95C1119.27 95 1121.51 92.7614 1121.51 90C1121.51 87.2386 1119.27 85 1116.51 85C1113.74 85 1111.51 87.2386 1111.51 90C1111.51 92.7614 1113.74 95 1116.51 95ZM1141.51 10C1141.51 12.7614 1139.27 15 1136.51 15C1133.74 15 1131.51 12.7614 1131.51 10C1131.51 7.23858 1133.74 5 1136.51 5C1139.27 5 1141.51 7.23858 1141.51 10ZM1136.51 95C1139.27 95 1141.51 92.7614 1141.51 90C1141.51 87.2386 1139.27 85 1136.51 85C1133.74 85 1131.51 87.2386 1131.51 90C1131.51 92.7614 1133.74 95 1136.51 95ZM1161.51 10C1161.51 12.7614 1159.27 15 1156.51 15C1153.74 15 1151.51 12.7614 1151.51 10C1151.51 7.23858 1153.74 5 1156.51 5C1159.27 5 1161.51 7.23858 1161.51 10ZM1156.51 95C1159.27 95 1161.51 92.7614 1161.51 90C1161.51 87.2386 1159.27 85 1156.51 85C1153.74 85 1151.51 87.2386 1151.51 90C1151.51 92.7614 1153.74 95 1156.51 95ZM1181.51 10C1181.51 12.7614 1179.27 15 1176.51 15C1173.74 15 1171.51 12.7614 1171.51 10C1171.51 7.23858 1173.74 5 1176.51 5C1179.27 5 1181.51 7.23858 1181.51 10ZM1176.51 95C1179.27 95 1181.51 92.7614 1181.51 90C1181.51 87.2386 1179.27 85 1176.51 85C1173.74 85 1171.51 87.2386 1171.51 90C1171.51 92.7614 1173.74 95 1176.51 95ZM1201.51 10C1201.51 12.7614 1199.27 15 1196.51 15C1193.74 15 1191.51 12.7614 1191.51 10C1191.51 7.23858 1193.74 5 1196.51 5C1199.27 5 1201.51 7.23858 1201.51 10ZM1196.51 95C1199.27 95 1201.51 92.7614 1201.51 90C1201.51 87.2386 1199.27 85 1196.51 85C1193.74 85 1191.51 87.2386 1191.51 90C1191.51 92.7614 1193.74 95 1196.51 95ZM1221.51 10C1221.51 12.7614 1219.27 15 1216.51 15C1213.74 15 1211.51 12.7614 1211.51 10C1211.51 7.23858 1213.74 5 1216.51 5C1219.27 5 1221.51 7.23858 1221.51 10ZM1216.51 95C1219.27 95 1221.51 92.7614 1221.51 90C1221.51 87.2386 1219.27 85 1216.51 85C1213.74 85 1211.51 87.2386 1211.51 90C1211.51 92.7614 1213.74 95 1216.51 95ZM1241.51 10C1241.51 12.7614 1239.27 15 1236.51 15C1233.74 15 1231.51 12.7614 1231.51 10C1231.51 7.23858 1233.74 5 1236.51 5C1239.27 5 1241.51 7.23858 1241.51 10ZM1236.51 95C1239.27 95 1241.51 92.7614 1241.51 90C1241.51 87.2386 1239.27 85 1236.51 85C1233.74 85 1231.51 87.2386 1231.51 90C1231.51 92.7614 1233.74 95 1236.51 95ZM1261.51 10C1261.51 12.7614 1259.27 15 1256.51 15C1253.74 15 1251.51 12.7614 1251.51 10C1251.51 7.23858 1253.74 5 1256.51 5C1259.27 5 1261.51 7.23858 1261.51 10ZM1256.51 95C1259.27 95 1261.51 92.7614 1261.51 90C1261.51 87.2386 1259.27 85 1256.51 85C1253.74 85 1251.51 87.2386 1251.51 90C1251.51 92.7614 1253.74 95 1256.51 95ZM1281.51 10C1281.51 12.7614 1279.27 15 1276.51 15C1273.74 15 1271.51 12.7614 1271.51 10C1271.51 7.23858 1273.74 5 1276.51 5C1279.27 5 1281.51 7.23858 1281.51 10ZM1276.51 95C1279.27 95 1281.51 92.7614 1281.51 90C1281.51 87.2386 1279.27 85 1276.51 85C1273.74 85 1271.51 87.2386 1271.51 90C1271.51 92.7614 1273.74 95 1276.51 95ZM1301.51 10C1301.51 12.7614 1299.27 15 1296.51 15C1293.74 15 1291.51 12.7614 1291.51 10C1291.51 7.23858 1293.74 5 1296.51 5C1299.27 5 1301.51 7.23858 1301.51 10ZM1296.51 95C1299.27 95 1301.51 92.7614 1301.51 90C1301.51 87.2386 1299.27 85 1296.51 85C1293.74 85 1291.51 87.2386 1291.51 90C1291.51 92.7614 1293.74 95 1296.51 95ZM21.5062 10C21.5062 12.7614 19.2676 15 16.5062 15C13.7447 15 11.5062 12.7614 11.5062 10C11.5062 7.23858 13.7447 5 16.5062 5C19.2676 5 21.5062 7.23858 21.5062 10ZM16.5062 95C19.2676 95 21.5062 92.7614 21.5062 90C21.5062 87.2386 19.2676 85 16.5062 85C13.7447 85 11.5062 87.2386 11.5062 90C11.5062 92.7614 13.7447 95 16.5062 95ZM41.5062 10C41.5062 12.7614 39.2676 15 36.5062 15C33.7447 15 31.5062 12.7614 31.5062 10C31.5062 7.23858 33.7447 5 36.5062 5C39.2676 5 41.5062 7.23858 41.5062 10ZM36.5062 95C39.2676 95 41.5062 92.7614 41.5062 90C41.5062 87.2386 39.2676 85 36.5062 85C33.7447 85 31.5062 87.2386 31.5062 90C31.5062 92.7614 33.7447 95 36.5062 95ZM61.5062 10C61.5062 12.7614 59.2676 15 56.5062 15C53.7447 15 51.5062 12.7614 51.5062 10C51.5062 7.23858 53.7447 5 56.5062 5C59.2676 5 61.5062 7.23858 61.5062 10ZM56.5062 95C59.2676 95 61.5062 92.7614 61.5062 90C61.5062 87.2386 59.2676 85 56.5062 85C53.7447 85 51.5062 87.2386 51.5062 90C51.5062 92.7614 53.7447 95 56.5062 95ZM81.5062 10C81.5062 12.7614 79.2676 15 76.5062 15C73.7448 15 71.5062 12.7614 71.5062 10C71.5062 7.23858 73.7448 5 76.5062 5C79.2676 5 81.5062 7.23858 81.5062 10ZM76.5062 95C79.2676 95 81.5062 92.7614 81.5062 90C81.5062 87.2386 79.2676 85 76.5062 85C73.7448 85 71.5062 87.2386 71.5062 90C71.5062 92.7614 73.7448 95 76.5062 95ZM101.506 10C101.506 12.7614 99.2676 15 96.5062 15C93.7448 15 91.5062 12.7614 91.5062 10C91.5062 7.23858 93.7448 5 96.5062 5C99.2676 5 101.506 7.23858 101.506 10ZM96.5062 95C99.2676 95 101.506 92.7614 101.506 90C101.506 87.2386 99.2676 85 96.5062 85C93.7448 85 91.5062 87.2386 91.5062 90C91.5062 92.7614 93.7448 95 96.5062 95ZM121.506 10C121.506 12.7614 119.268 15 116.506 15C113.745 15 111.506 12.7614 111.506 10C111.506 7.23858 113.745 5 116.506 5C119.268 5 121.506 7.23858 121.506 10ZM116.506 95C119.268 95 121.506 92.7614 121.506 90C121.506 87.2386 119.268 85 116.506 85C113.745 85 111.506 87.2386 111.506 90C111.506 92.7614 113.745 95 116.506 95ZM141.506 10C141.506 12.7614 139.268 15 136.506 15C133.745 15 131.506 12.7614 131.506 10C131.506 7.23858 133.745 5 136.506 5C139.268 5 141.506 7.23858 141.506 10ZM136.506 95C139.268 95 141.506 92.7614 141.506 90C141.506 87.2386 139.268 85 136.506 85C133.745 85 131.506 87.2386 131.506 90C131.506 92.7614 133.745 95 136.506 95ZM161.506 10C161.506 12.7614 159.268 15 156.506 15C153.745 15 151.506 12.7614 151.506 10C151.506 7.23858 153.745 5 156.506 5C159.268 5 161.506 7.23858 161.506 10ZM156.506 95C159.268 95 161.506 92.7614 161.506 90C161.506 87.2386 159.268 85 156.506 85C153.745 85 151.506 87.2386 151.506 90C151.506 92.7614 153.745 95 156.506 95ZM181.506 10C181.506 12.7614 179.268 15 176.506 15C173.745 15 171.506 12.7614 171.506 10C171.506 7.23858 173.745 5 176.506 5C179.268 5 181.506 7.23858 181.506 10ZM176.506 95C179.268 95 181.506 92.7614 181.506 90C181.506 87.2386 179.268 85 176.506 85C173.745 85 171.506 87.2386 171.506 90C171.506 92.7614 173.745 95 176.506 95ZM201.506 10C201.506 12.7614 199.268 15 196.506 15C193.745 15 191.506 12.7614 191.506 10C191.506 7.23858 193.745 5 196.506 5C199.268 5 201.506 7.23858 201.506 10ZM196.506 95C199.268 95 201.506 92.7614 201.506 90C201.506 87.2386 199.268 85 196.506 85C193.745 85 191.506 87.2386 191.506 90C191.506 92.7614 193.745 95 196.506 95ZM221.506 10C221.506 12.7614 219.268 15 216.506 15C213.745 15 211.506 12.7614 211.506 10C211.506 7.23858 213.745 5 216.506 5C219.268 5 221.506 7.23858 221.506 10ZM216.506 95C219.268 95 221.506 92.7614 221.506 90C221.506 87.2386 219.268 85 216.506 85C213.745 85 211.506 87.2386 211.506 90C211.506 92.7614 213.745 95 216.506 95ZM241.506 10C241.506 12.7614 239.268 15 236.506 15C233.745 15 231.506 12.7614 231.506 10C231.506 7.23858 233.745 5 236.506 5C239.268 5 241.506 7.23858 241.506 10ZM236.506 95C239.268 95 241.506 92.7614 241.506 90C241.506 87.2386 239.268 85 236.506 85C233.745 85 231.506 87.2386 231.506 90C231.506 92.7614 233.745 95 236.506 95ZM261.506 10C261.506 12.7614 259.268 15 256.506 15C253.745 15 251.506 12.7614 251.506 10C251.506 7.23858 253.745 5 256.506 5C259.268 5 261.506 7.23858 261.506 10ZM256.506 95C259.268 95 261.506 92.7614 261.506 90C261.506 87.2386 259.268 85 256.506 85C253.745 85 251.506 87.2386 251.506 90C251.506 92.7614 253.745 95 256.506 95ZM281.506 10C281.506 12.7614 279.268 15 276.506 15C273.745 15 271.506 12.7614 271.506 10C271.506 7.23858 273.745 5 276.506 5C279.268 5 281.506 7.23858 281.506 10ZM276.506 95C279.268 95 281.506 92.7614 281.506 90C281.506 87.2386 279.268 85 276.506 85C273.745 85 271.506 87.2386 271.506 90C271.506 92.7614 273.745 95 276.506 95ZM301.506 10C301.506 12.7614 299.268 15 296.506 15C293.745 15 291.506 12.7614 291.506 10C291.506 7.23858 293.745 5 296.506 5C299.268 5 301.506 7.23858 301.506 10ZM296.506 95C299.268 95 301.506 92.7614 301.506 90C301.506 87.2386 299.268 85 296.506 85C293.745 85 291.506 87.2386 291.506 90C291.506 92.7614 293.745 95 296.506 95ZM321.506 10C321.506 12.7614 319.268 15 316.506 15C313.745 15 311.506 12.7614 311.506 10C311.506 7.23858 313.745 5 316.506 5C319.268 5 321.506 7.23858 321.506 10ZM316.506 95C319.268 95 321.506 92.7614 321.506 90C321.506 87.2386 319.268 85 316.506 85C313.745 85 311.506 87.2386 311.506 90C311.506 92.7614 313.745 95 316.506 95ZM341.506 10C341.506 12.7614 339.268 15 336.506 15C333.745 15 331.506 12.7614 331.506 10C331.506 7.23858 333.745 5 336.506 5C339.268 5 341.506 7.23858 341.506 10ZM336.506 95C339.268 95 341.506 92.7614 341.506 90C341.506 87.2386 339.268 85 336.506 85C333.745 85 331.506 87.2386 331.506 90C331.506 92.7614 333.745 95 336.506 95ZM361.506 10C361.506 12.7614 359.268 15 356.506 15C353.745 15 351.506 12.7614 351.506 10C351.506 7.23858 353.745 5 356.506 5C359.268 5 361.506 7.23858 361.506 10ZM356.506 95C359.268 95 361.506 92.7614 361.506 90C361.506 87.2386 359.268 85 356.506 85C353.745 85 351.506 87.2386 351.506 90C351.506 92.7614 353.745 95 356.506 95ZM381.506 10C381.506 12.7614 379.268 15 376.506 15C373.745 15 371.506 12.7614 371.506 10C371.506 7.23858 373.745 5 376.506 5C379.268 5 381.506 7.23858 381.506 10ZM376.506 95C379.268 95 381.506 92.7614 381.506 90C381.506 87.2386 379.268 85 376.506 85C373.745 85 371.506 87.2386 371.506 90C371.506 92.7614 373.745 95 376.506 95ZM401.506 10C401.506 12.7614 399.268 15 396.506 15C393.745 15 391.506 12.7614 391.506 10C391.506 7.23858 393.745 5 396.506 5C399.268 5 401.506 7.23858 401.506 10ZM396.506 95C399.268 95 401.506 92.7614 401.506 90C401.506 87.2386 399.268 85 396.506 85C393.745 85 391.506 87.2386 391.506 90C391.506 92.7614 393.745 95 396.506 95ZM421.506 10C421.506 12.7614 419.268 15 416.506 15C413.745 15 411.506 12.7614 411.506 10C411.506 7.23858 413.745 5 416.506 5C419.268 5 421.506 7.23858 421.506 10ZM416.506 95C419.268 95 421.506 92.7614 421.506 90C421.506 87.2386 419.268 85 416.506 85C413.745 85 411.506 87.2386 411.506 90C411.506 92.7614 413.745 95 416.506 95ZM441.506 10C441.506 12.7614 439.268 15 436.506 15C433.745 15 431.506 12.7614 431.506 10C431.506 7.23858 433.745 5 436.506 5C439.268 5 441.506 7.23858 441.506 10ZM436.506 95C439.268 95 441.506 92.7614 441.506 90C441.506 87.2386 439.268 85 436.506 85C433.745 85 431.506 87.2386 431.506 90C431.506 92.7614 433.745 95 436.506 95ZM461.506 10C461.506 12.7614 459.268 15 456.506 15C453.745 15 451.506 12.7614 451.506 10C451.506 7.23858 453.745 5 456.506 5C459.268 5 461.506 7.23858 461.506 10ZM456.506 95C459.268 95 461.506 92.7614 461.506 90C461.506 87.2386 459.268 85 456.506 85C453.745 85 451.506 87.2386 451.506 90C451.506 92.7614 453.745 95 456.506 95ZM481.506 10C481.506 12.7614 479.268 15 476.506 15C473.745 15 471.506 12.7614 471.506 10C471.506 7.23858 473.745 5 476.506 5C479.268 5 481.506 7.23858 481.506 10ZM476.506 95C479.268 95 481.506 92.7614 481.506 90C481.506 87.2386 479.268 85 476.506 85C473.745 85 471.506 87.2386 471.506 90C471.506 92.7614 473.745 95 476.506 95ZM501.506 10C501.506 12.7614 499.268 15 496.506 15C493.745 15 491.506 12.7614 491.506 10C491.506 7.23858 493.745 5 496.506 5C499.268 5 501.506 7.23858 501.506 10ZM496.506 95C499.268 95 501.506 92.7614 501.506 90C501.506 87.2386 499.268 85 496.506 85C493.745 85 491.506 87.2386 491.506 90C491.506 92.7614 493.745 95 496.506 95ZM521.506 10C521.506 12.7614 519.268 15 516.506 15C513.745 15 511.506 12.7614 511.506 10C511.506 7.23858 513.745 5 516.506 5C519.268 5 521.506 7.23858 521.506 10ZM516.506 95C519.268 95 521.506 92.7614 521.506 90C521.506 87.2386 519.268 85 516.506 85C513.745 85 511.506 87.2386 511.506 90C511.506 92.7614 513.745 95 516.506 95ZM541.506 10C541.506 12.7614 539.268 15 536.506 15C533.745 15 531.506 12.7614 531.506 10C531.506 7.23858 533.745 5 536.506 5C539.268 5 541.506 7.23858 541.506 10ZM536.506 95C539.268 95 541.506 92.7614 541.506 90C541.506 87.2386 539.268 85 536.506 85C533.745 85 531.506 87.2386 531.506 90C531.506 92.7614 533.745 95 536.506 95ZM561.506 10C561.506 12.7614 559.268 15 556.506 15C553.745 15 551.506 12.7614 551.506 10C551.506 7.23858 553.745 5 556.506 5C559.268 5 561.506 7.23858 561.506 10ZM556.506 95C559.268 95 561.506 92.7614 561.506 90C561.506 87.2386 559.268 85 556.506 85C553.745 85 551.506 87.2386 551.506 90C551.506 92.7614 553.745 95 556.506 95ZM581.506 10C581.506 12.7614 579.268 15 576.506 15C573.745 15 571.506 12.7614 571.506 10C571.506 7.23858 573.745 5 576.506 5C579.268 5 581.506 7.23858 581.506 10ZM576.506 95C579.268 95 581.506 92.7614 581.506 90C581.506 87.2386 579.268 85 576.506 85C573.745 85 571.506 87.2386 571.506 90C571.506 92.7614 573.745 95 576.506 95ZM601.506 10C601.506 12.7614 599.268 15 596.506 15C593.745 15 591.506 12.7614 591.506 10C591.506 7.23858 593.745 5 596.506 5C599.268 5 601.506 7.23858 601.506 10ZM596.506 95C599.268 95 601.506 92.7614 601.506 90C601.506 87.2386 599.268 85 596.506 85C593.745 85 591.506 87.2386 591.506 90C591.506 92.7614 593.745 95 596.506 95ZM621.506 10C621.506 12.7614 619.268 15 616.506 15C613.745 15 611.506 12.7614 611.506 10C611.506 7.23858 613.745 5 616.506 5C619.268 5 621.506 7.23858 621.506 10ZM616.506 95C619.268 95 621.506 92.7614 621.506 90C621.506 87.2386 619.268 85 616.506 85C613.745 85 611.506 87.2386 611.506 90C611.506 92.7614 613.745 95 616.506 95ZM641.506 10C641.506 12.7614 639.268 15 636.506 15C633.745 15 631.506 12.7614 631.506 10C631.506 7.23858 633.745 5 636.506 5C639.268 5 641.506 7.23858 641.506 10ZM636.506 95C639.268 95 641.506 92.7614 641.506 90C641.506 87.2386 639.268 85 636.506 85C633.745 85 631.506 87.2386 631.506 90C631.506 92.7614 633.745 95 636.506 95Z" fill="#BB2525"/>
</g>
<path d="M545.577 33.9639L543.555 66.2197L533.536 66.6592L533.624 49.6523L529.097 63.3633H525.23L521.758 51.1025L521.714 65.3408L511.563 65.6484L512.002 35.2822L523.296 34.8428L527.779 49.3887L533.755 33.9639H545.577ZM574.295 36.249L563.968 53.124L564.275 65.5605H552.981L553.245 53.2119L545.203 36.9082L556.409 35.502L559.925 44.9941L563.748 35.502L574.295 36.249ZM622.876 35.502L617.735 65.9561L605.254 66.2197L602.574 50.4434L599.893 65.0771L587.413 65.5166L582.227 35.502L593.125 34.5352L595.323 52.7725L598.267 34.5352H606.836L610.264 52.9922L612.022 34.5352L622.876 35.502ZM650.232 64.1104L639.334 65.5166L638.016 60.5508H633.006L631.907 65.5166L620.701 64.418L629.446 35.1504L641.663 34.5352L650.232 64.1104ZM637.225 53.8271L635.555 46.1807L633.929 53.8271H637.225ZM671.238 35.0186L671.019 44.335L664.471 44.5986L663.68 64.9893L654.407 65.4727L653.572 45.082L647.024 45.4336L647.288 35.0625L671.238 35.0186ZM692.837 35.9854L692.046 45.2578C691.622 45.1406 691.204 45.0601 690.794 45.0161C690.384 44.9722 689.966 44.9502 689.542 44.9502C688.501 44.9502 687.505 45.082 686.553 45.3457C685.616 45.6094 684.781 46.0122 684.048 46.5542C683.331 47.0962 682.752 47.7847 682.312 48.6196C681.888 49.4399 681.675 50.4141 681.675 51.542C681.675 52.3623 681.792 53.0801 682.027 53.6953C682.276 54.2959 682.62 54.8013 683.06 55.2114C683.514 55.6069 684.056 55.9072 684.686 56.1123C685.33 56.3174 686.041 56.4199 686.817 56.4199C687.359 56.4199 687.916 56.3687 688.487 56.2661C689.058 56.1489 689.629 55.9951 690.201 55.8047C690.772 55.6143 691.321 55.3945 691.849 55.1455C692.376 54.8965 692.867 54.6328 693.321 54.3545L692.969 64.6816C692.398 64.9746 691.783 65.2383 691.124 65.4727C690.464 65.6924 689.783 65.8828 689.08 66.0439C688.392 66.2197 687.696 66.3516 686.993 66.4395C686.304 66.5273 685.645 66.5713 685.015 66.5713C682.935 66.5713 681.038 66.1831 679.324 65.4067C677.625 64.6304 676.16 63.5757 674.93 62.2427C673.714 60.895 672.769 59.335 672.095 57.5625C671.421 55.79 671.084 53.9004 671.084 51.8936C671.084 49.4912 671.421 47.25 672.095 45.1699C672.784 43.0898 673.787 41.2881 675.105 39.7646C676.438 38.2266 678.079 37.0254 680.027 36.1611C681.99 35.2822 684.239 34.8428 686.773 34.8428C687.784 34.8428 688.809 34.9233 689.849 35.0845C690.889 35.2456 691.885 35.5459 692.837 35.9854ZM721.028 65.1211L710.042 65.6484L709.954 56.376H704.9L704.593 66H694.749L695.584 35.1064L706.043 35.5898L705.384 51.3662H710.262L710.306 34.8428L720.325 35.1064L721.028 65.1211ZM742.386 54.3545L741.463 64.1104L722.962 65.5605L723.665 34.1836H735.091L733.465 54.3545H742.386ZM754.888 35.0625L753.35 64.9893L744.078 65.4727L743.199 35.6777L754.888 35.0625ZM779.212 54.75C779.212 56.7568 778.86 58.4927 778.157 59.9575C777.469 61.4077 776.517 62.6089 775.301 63.561C774.1 64.4985 772.686 65.1943 771.06 65.6484C769.449 66.0879 767.713 66.3076 765.853 66.3076C765.135 66.3076 764.344 66.2124 763.479 66.022C762.63 65.8315 761.766 65.5972 760.887 65.3188C760.008 65.0259 759.158 64.7183 758.338 64.396C757.532 64.0591 756.814 63.7441 756.185 63.4512L757.151 54.8379C758.396 55.585 759.773 56.1562 761.282 56.5518C762.806 56.9326 764.3 57.123 765.765 57.123C766.043 57.123 766.38 57.1157 766.775 57.1011C767.171 57.0718 767.544 57.0059 767.896 56.9033C768.262 56.7861 768.57 56.6177 768.819 56.3979C769.068 56.1782 769.192 55.8633 769.192 55.4531C769.192 55.1748 769.104 54.9404 768.929 54.75C768.753 54.5449 768.526 54.3838 768.248 54.2666C767.969 54.1348 767.654 54.0396 767.303 53.981C766.951 53.9077 766.607 53.8564 766.27 53.8271C765.933 53.7979 765.618 53.7832 765.325 53.7832C765.032 53.7832 764.798 53.7832 764.622 53.7832C763.362 53.7832 762.212 53.5854 761.172 53.1899C760.147 52.7944 759.261 52.2378 758.514 51.52C757.781 50.7876 757.21 49.9087 756.8 48.8833C756.39 47.8433 756.185 46.6934 756.185 45.4336C756.185 43.7051 756.529 42.1597 757.217 40.7974C757.92 39.4204 758.851 38.2559 760.008 37.3037C761.18 36.3369 762.52 35.5972 764.029 35.0845C765.538 34.5718 767.098 34.3154 768.709 34.3154C769.427 34.3154 770.167 34.3447 770.928 34.4033C771.69 34.4473 772.444 34.5352 773.191 34.667C773.953 34.7988 774.693 34.9673 775.411 35.1724C776.128 35.3774 776.81 35.6338 777.454 35.9414L776.619 44.8623C775.623 44.5254 774.576 44.2471 773.477 44.0273C772.393 43.793 771.331 43.6758 770.291 43.6758C770.101 43.6758 769.852 43.6831 769.544 43.6978C769.251 43.6978 768.936 43.7197 768.599 43.7637C768.277 43.793 767.947 43.8442 767.61 43.9175C767.273 43.9907 766.973 44.0933 766.709 44.2251C766.446 44.3423 766.233 44.5034 766.072 44.7085C765.911 44.9136 765.838 45.1553 765.853 45.4336C765.867 45.7559 765.984 46.0049 766.204 46.1807C766.438 46.3564 766.731 46.4883 767.083 46.5762C767.449 46.6494 767.845 46.686 768.27 46.686C768.709 46.686 769.141 46.6787 769.566 46.6641C769.991 46.6348 770.386 46.6128 770.752 46.5981C771.119 46.5688 771.419 46.5615 771.653 46.5762C772.825 46.6494 773.88 46.8984 774.817 47.3232C775.755 47.748 776.546 48.312 777.19 49.0151C777.85 49.7183 778.348 50.5605 778.685 51.542C779.036 52.5088 779.212 53.5781 779.212 54.75ZM803.382 35.0186L803.162 44.335L796.614 44.5986L795.823 64.9893L786.551 65.4727L785.716 45.082L779.168 45.4336L779.432 35.0625L803.382 35.0186Z" fill="#FFE6D0"/>
<defs>
<filter id="filter0_d_166_162" x="0" y="0" width="1311.01" height="104" filterUnits="userSpaceOnUse" color-interpolation-filters="sRGB">
<feFlood flood-opacity="0" result="BackgroundImageFix"/>
<feColorMatrix in="SourceAlpha" type="matrix" values="0 0 0 0 0 0 0 0 0 0 0 0 0 0 0 0 0 0 127 0" result="hardAlpha"/>
<feOffset dx="-2" dy="4"/>
<feComposite in2="hardAlpha" operator="out"/>
<feColorMatrix type="matrix" values="0 0 0 0 0 0 0 0 0 0 0 0 0 0 0 0 0 0 0.4 0"/>
<feBlend mode="normal" in2="BackgroundImageFix" result="effect1_dropShadow_166_162"/>
<feBlend mode="normal" in="SourceGraphic" in2="effect1_dropShadow_166_162" result="shape"/>
</filter>
</defs>
</svg>
